<svg xmlns="http://www.w3.org/2000/svg" xmlns:xlink="http://www.w3.org/1999/xlink" width="867" zoomAndPan="magnify" viewBox="0 0 650.25 525.000007" height="700" preserveAspectRatio="xMidYMid meet" version="1.0"><defs><filter x="0%" y="0%" width="100%" height="100%" id="90fbfca3d4"><feColorMatrix values="0 0 0 0 1 0 0 0 0 1 0 0 0 0 1 0 0 0 1 0" color-interpolation-filters="sRGB"/></filter><mask id="84e2c1d9cf"><g filter="url(#90fbfca3d4)"><rect x="-65.025" width="780.3" fill="#000000" y="-52.500001" height="630.000008" fill-opacity="0.4471"/></g></mask><mask id="b3ffea653c"><g filter="url(#90fbfca3d4)"><rect x="-521.055" width="936.36" fill="#000000" y="-155.500002" height="756.00001" fill-opacity="0.6"/></g></mask><clipPath id="31b521af32"><rect x="0" width="18" y="0" height="17"/></clipPath><clipPath id="448bcf16f8"><rect x="0" width="88" y="0" height="87"/></clipPath><mask id="8d2bbac802"><g filter="url(#90fbfca3d4)"><rect x="-65.025" width="780.3" fill="#000000" y="-52.500001" height="630.000008" fill-opacity="0.498"/></g></mask><clipPath id="b6cc55fbc8"><path d="M 48 88 L 78 88 L 78 102.957031 L 48 102.957031 Z M 48 88 " clip-rule="nonzero"/></clipPath><clipPath id="b5e45159f6"><path d="M 62 0.195312 L 65 0.195312 L 65 38 L 62 38 Z M 62 0.195312 " clip-rule="nonzero"/></clipPath><clipPath id="92a5a01df6"><rect x="0" width="126" y="0" height="103"/></clipPath></defs><path fill="#d6e3e8" d="M 643.203125 332.144531 C 642.59375 337.207031 641.761719 342.265625 640.769531 347.230469 C 638.6875 358.535156 635.578125 369.523438 631.511719 380.1875 C 630.164062 383.777344 628.753906 387.363281 627.25 390.855469 C 626 393.511719 624.75 396.265625 623.4375 398.894531 C 623.4375 398.925781 623.4375 398.925781 623.4375 398.925781 C 621.835938 402.097656 620.234375 405.171875 618.472656 408.214844 C 616.328125 412.089844 613.957031 415.933594 611.488281 419.710938 C 607.390625 425.925781 602.9375 432.042969 598.066406 437.96875 L 598.066406 438 C 589.707031 448.25 580.222656 457.921875 569.554688 467.113281 C 569.234375 467.402344 568.949219 467.628906 568.628906 467.882812 L 568.59375 467.914062 C 545.5 487.515625 525.0625 494.117188 505.039062 494.660156 L 505.007812 494.660156 C 500.683594 494.789062 496.421875 494.628906 492.128906 494.242188 C 484.984375 493.601562 477.84375 492.417969 470.507812 490.945312 C 448.019531 486.332031 424.472656 479.191406 396.828125 479.09375 C 395.480469 479.0625 394.167969 479.09375 392.824219 479.09375 C 392.597656 479.09375 392.375 479.125 392.085938 479.125 C 388.53125 479.222656 384.878906 479.414062 381.195312 479.765625 C 374.949219 480.3125 368.445312 481.335938 361.6875 482.839844 C 357.648438 483.707031 353.453125 484.828125 349.226562 486.109375 C 345.828125 487.132812 342.433594 488.316406 338.847656 489.597656 C 337.789062 490.015625 336.699219 490.367188 335.640625 490.847656 C 335.417969 490.945312 335.289062 490.976562 335.035156 491.074219 C 329.234375 493.378906 323.597656 495.492188 317.925781 497.511719 C 315.84375 498.277344 313.730469 499.078125 311.679688 499.753906 C 306.90625 501.515625 302.261719 503.050781 297.648438 504.523438 C 295.3125 505.292969 293.003906 506.03125 290.699219 506.734375 C 264.6875 515 240.949219 520.378906 219.453125 522.558594 C 210.261719 523.519531 201.515625 523.804688 193.1875 523.484375 C 192.320312 523.484375 191.488281 523.390625 190.65625 523.292969 C 188.414062 523.261719 186.136719 523.070312 183.992188 522.84375 C 182.390625 522.652344 180.789062 522.492188 179.15625 522.238281 C 177.328125 522.011719 175.472656 521.722656 173.675781 521.371094 C 172.652344 521.179688 171.660156 520.957031 170.632812 520.730469 C 169.160156 520.507812 167.6875 520.121094 166.214844 519.769531 C 148.050781 515.125 132.609375 506.253906 119.890625 492.449219 C 107.300781 478.613281 97.4375 459.941406 90.644531 435.664062 C 73.667969 375.894531 116.496094 344.765625 143.308594 304.664062 C 146.160156 300.339844 148.882812 295.984375 151.253906 291.4375 C 155.898438 282.691406 159.519531 273.371094 161.40625 263.152344 C 167.429688 231.347656 140.683594 199.289062 136.484375 165.691406 C 135.332031 156.082031 135.300781 146.152344 136.679688 136.125 C 137.125 132.636719 137.765625 129.175781 138.601562 125.683594 C 146.191406 92.3125 169 59.511719 211.476562 39.558594 C 221.28125 34.945312 231.113281 30.878906 240.949219 27.195312 C 242.292969 26.652344 243.703125 26.140625 245.082031 25.691406 C 245.5 25.5625 245.914062 25.402344 246.332031 25.273438 C 246.683594 25.144531 247.035156 24.984375 247.386719 24.921875 C 250.464844 23.769531 253.636719 22.710938 256.773438 21.75 C 317.574219 2.085938 378.34375 0.0351562 432.769531 14.351562 C 436.710938 15.3125 440.617188 16.464844 444.527344 17.652344 C 446.609375 18.261719 448.628906 18.933594 450.675781 19.636719 C 474.09375 27.484375 496.070312 38.566406 515.964844 52.753906 C 519.679688 55.285156 523.234375 57.945312 526.757812 60.699219 C 547.164062 76.839844 565.296875 96.378906 580.417969 119.121094 C 584.195312 124.789062 587.785156 130.425781 591.210938 136.09375 C 597.042969 145.734375 602.488281 155.410156 607.355469 165.015625 C 637.117188 223.117188 649.449219 280.097656 643.203125 332.144531 Z M 643.203125 332.144531 " fill-opacity="1" fill-rule="nonzero"/><path fill="#d2e2ed" d="M 4.601562 263.667969 C 8.894531 299.027344 38.71875 324.488281 71.199219 320.550781 C 103.714844 316.609375 126.554688 284.742188 122.261719 249.382812 C 117.96875 214.019531 88.113281 188.527344 55.632812 192.496094 C 23.148438 196.4375 0.308594 228.304688 4.601562 263.667969 Z M 4.601562 263.667969 " fill-opacity="1" fill-rule="nonzero"/><path fill="#4581c5" d="M 72.066406 134.109375 C 99.359375 134.109375 121.558594 152.171875 121.558594 174.402344 C 121.558594 192.851562 105.894531 208.578125 84.207031 213.09375 C 85.167969 216.199219 89.300781 228.851562 88.691406 229.300781 C 87.890625 229.941406 84.171875 226.960938 83.308594 226.417969 C 83.308594 226.417969 64.152344 214.214844 63.734375 213.957031 C 39.871094 210.660156 22.605469 194.195312 22.605469 174.433594 C 22.605469 152.171875 44.769531 134.109375 72.066406 134.109375 Z M 72.066406 134.109375 " fill-opacity="1" fill-rule="nonzero"/><path fill="#ffffff" d="M 52.074219 174.914062 C 52.074219 178.179688 49.417969 180.839844 46.148438 180.839844 C 42.882812 180.839844 40.253906 178.179688 40.253906 174.914062 C 40.253906 171.648438 42.882812 168.988281 46.148438 168.988281 C 49.417969 169.019531 52.074219 171.648438 52.074219 174.914062 Z M 52.074219 174.914062 " fill-opacity="1" fill-rule="nonzero"/><path fill="#ffffff" d="M 77.316406 174.914062 C 77.316406 178.179688 74.660156 180.839844 71.390625 180.839844 C 68.125 180.839844 65.496094 178.179688 65.496094 174.914062 C 65.496094 171.648438 68.125 168.988281 71.390625 168.988281 C 74.660156 169.019531 77.316406 171.648438 77.316406 174.914062 Z M 77.316406 174.914062 " fill-opacity="1" fill-rule="nonzero"/><path fill="#ffffff" d="M 103.394531 174.914062 C 103.394531 178.179688 100.765625 180.839844 97.46875 180.839844 C 94.199219 180.839844 91.542969 178.179688 91.542969 174.914062 C 91.542969 171.648438 94.167969 168.988281 97.46875 168.988281 C 100.765625 169.019531 103.394531 171.648438 103.394531 174.914062 Z M 103.394531 174.914062 " fill-opacity="1" fill-rule="nonzero"/><path fill="#334d5c" d="M 325.550781 178.5 C 325.488281 178.5 325.457031 178.5 325.390625 178.5 C 324.75 178.40625 324.300781 177.828125 324.398438 177.21875 L 324.496094 176.546875 C 324.589844 175.90625 325.167969 175.457031 325.777344 175.554688 C 326.417969 175.652344 326.863281 176.226562 326.769531 176.835938 L 326.671875 177.507812 C 326.609375 178.085938 326.097656 178.5 325.550781 178.5 Z M 325.550781 178.5 " fill-opacity="1" fill-rule="nonzero"/><path fill="#334d5c" d="M 318.28125 234.425781 C 318.214844 234.425781 318.183594 234.425781 318.121094 234.425781 C 317.480469 234.328125 317.0625 233.75 317.125 233.144531 L 317.320312 231.703125 C 317.414062 231.0625 317.992188 230.644531 318.601562 230.707031 C 319.242188 230.804688 319.6875 231.382812 319.59375 231.988281 L 319.402344 233.429688 C 319.335938 234.007812 318.855469 234.425781 318.28125 234.425781 Z M 319.082031 228.210938 C 319.015625 228.210938 318.984375 228.210938 318.921875 228.210938 C 318.28125 228.113281 317.832031 227.539062 317.925781 226.929688 L 318.121094 225.488281 C 318.214844 224.847656 318.792969 224.398438 319.402344 224.496094 C 320.042969 224.589844 320.457031 225.167969 320.394531 225.777344 L 320.203125 227.21875 C 320.136719 227.792969 319.65625 228.210938 319.082031 228.210938 Z M 319.882812 221.996094 C 319.816406 221.996094 319.785156 221.996094 319.722656 221.996094 C 319.082031 221.902344 318.664062 221.324219 318.726562 220.714844 L 318.921875 219.273438 C 319.015625 218.632812 319.59375 218.183594 320.203125 218.28125 C 320.84375 218.378906 321.289062 218.953125 321.195312 219.5625 L 321.003906 221.003906 C 320.96875 221.582031 320.457031 221.996094 319.882812 221.996094 Z M 320.714844 215.78125 C 320.648438 215.78125 320.617188 215.78125 320.554688 215.78125 C 319.914062 215.6875 319.496094 215.109375 319.5625 214.5 L 319.753906 213.0625 C 319.847656 212.421875 320.425781 212.003906 321.035156 212.066406 C 321.675781 212.164062 322.125 212.742188 322.027344 213.347656 L 321.835938 214.789062 C 321.773438 215.367188 321.257812 215.78125 320.714844 215.78125 Z M 321.515625 209.570312 C 321.453125 209.570312 321.417969 209.570312 321.355469 209.570312 C 320.714844 209.472656 320.265625 208.898438 320.363281 208.289062 L 320.554688 206.847656 C 320.648438 206.207031 321.226562 205.757812 321.835938 205.855469 C 322.476562 205.949219 322.925781 206.527344 322.828125 207.136719 L 322.636719 208.578125 C 322.574219 209.152344 322.09375 209.570312 321.515625 209.570312 Z M 322.316406 203.355469 C 322.253906 203.355469 322.21875 203.355469 322.15625 203.355469 C 321.515625 203.257812 321.066406 202.683594 321.164062 202.074219 L 321.355469 200.632812 C 321.449219 199.992188 322.027344 199.578125 322.636719 199.640625 C 323.277344 199.738281 323.726562 200.3125 323.628906 200.921875 L 323.4375 202.363281 C 323.375 202.9375 322.894531 203.355469 322.316406 203.355469 Z M 323.117188 197.140625 C 323.054688 197.140625 323.019531 197.140625 322.957031 197.140625 C 322.316406 197.046875 321.867188 196.46875 321.964844 195.859375 L 322.15625 194.417969 C 322.253906 193.777344 322.828125 193.332031 323.4375 193.425781 C 324.078125 193.523438 324.527344 194.097656 324.429688 194.707031 L 324.238281 196.148438 C 324.175781 196.726562 323.695312 197.140625 323.117188 197.140625 Z M 323.917969 190.929688 C 323.855469 190.929688 323.820312 190.929688 323.757812 190.929688 C 323.117188 190.832031 322.699219 190.257812 322.765625 189.648438 L 322.957031 188.207031 C 323.054688 187.566406 323.628906 187.117188 324.238281 187.214844 C 324.878906 187.308594 325.328125 187.886719 325.230469 188.496094 L 325.039062 189.9375 C 324.976562 190.511719 324.496094 190.929688 323.917969 190.929688 Z M 324.71875 184.714844 C 324.65625 184.714844 324.621094 184.714844 324.558594 184.714844 C 323.917969 184.617188 323.5 184.042969 323.566406 183.433594 L 323.757812 181.992188 C 323.855469 181.351562 324.429688 180.902344 325.039062 181 C 325.679688 181.09375 326.128906 181.671875 326.03125 182.28125 L 325.839844 183.722656 C 325.808594 184.296875 325.296875 184.714844 324.71875 184.714844 Z M 324.71875 184.714844 " fill-opacity="1" fill-rule="nonzero"/><path fill="#334d5c" d="M 317.574219 239.902344 C 317.511719 239.902344 317.480469 239.902344 317.414062 239.902344 C 316.773438 239.804688 316.324219 239.261719 316.421875 238.621094 L 316.519531 237.945312 C 316.582031 237.304688 317.160156 236.859375 317.800781 236.953125 C 318.441406 237.050781 318.886719 237.59375 318.792969 238.234375 L 318.695312 238.90625 C 318.632812 239.484375 318.152344 239.902344 317.574219 239.902344 Z M 317.574219 239.902344 " fill-opacity="1" fill-rule="nonzero"/><path fill="#bcb3bd" d="M 102.5625 296.847656 C 102.5625 296.847656 87.503906 288.136719 70.429688 299.539062 C 53.355469 310.910156 49.03125 321.960938 53.355469 338.007812 C 57.714844 354.050781 74.082031 390.179688 81.804688 409.238281 C 86.351562 420.480469 102.273438 456.992188 114.605469 485.019531 C 133.441406 515.382812 173.675781 521.4375 173.675781 521.4375 L 149.714844 456.386719 Z M 102.5625 296.847656 " fill-opacity="1" fill-rule="nonzero"/><path fill="#a098a0" d="M 132.992188 335.316406 L 113.742188 305.785156 C 107.65625 296.464844 95.351562 293.582031 85.742188 299.1875 L 78.4375 303.480469 C 69.019531 308.988281 65.464844 320.839844 70.269531 330.640625 L 162.015625 518.554688 L 174.09375 521.5625 Z M 132.992188 335.316406 " fill-opacity="1" fill-rule="nonzero"/><path fill="#f9d6bd" d="M 611.457031 419.742188 C 607.355469 425.957031 602.902344 432.074219 598.035156 438 L 598.035156 438.03125 L 470.472656 491.007812 C 447.988281 486.394531 424.441406 479.253906 396.796875 479.15625 C 395.449219 479.125 394.136719 479.15625 392.792969 479.15625 C 392.566406 479.15625 392.34375 479.191406 392.054688 479.191406 C 388.5 479.285156 384.847656 479.476562 381.164062 479.832031 L 236.367188 371.09375 L 382.21875 345.660156 Z M 611.457031 419.742188 " fill-opacity="1" fill-rule="nonzero"/><path fill="#e5bba5" d="M 243.351562 376.34375 L 381.164062 479.832031 C 374.917969 480.375 368.414062 481.398438 361.652344 482.90625 L 233.035156 379.132812 Z M 243.351562 376.34375 " fill-opacity="1" fill-rule="nonzero"/><path fill="#e5bba5" d="M 598.035156 438.03125 C 589.675781 448.28125 580.191406 457.953125 569.523438 467.148438 C 569.203125 467.433594 568.914062 467.660156 568.59375 467.914062 L 568.5625 467.949219 L 505.007812 494.691406 L 504.976562 494.691406 C 500.652344 494.820312 496.390625 494.660156 492.097656 494.277344 C 484.953125 493.636719 477.808594 492.449219 470.472656 490.976562 Z M 598.035156 438.03125 " fill-opacity="1" fill-rule="nonzero"/><path fill="#f9c9ae" d="M 598.035156 438 C 589.707031 448.25 580.191406 457.953125 569.523438 467.148438 C 569.203125 467.433594 568.882812 467.691406 568.5625 467.980469 L 505.007812 494.722656 C 500.683594 494.851562 496.359375 494.691406 492.097656 494.308594 C 484.953125 493.667969 477.808594 492.480469 470.472656 491.007812 Z M 598.035156 438 " fill-opacity="1" fill-rule="nonzero"/><path fill="#4e4b63" d="M 455.835938 440.019531 L 497.992188 422.273438 L 389.269531 376.792969 L 355.472656 385.152344 L 358.484375 392.167969 Z M 455.835938 440.019531 " fill-opacity="1" fill-rule="nonzero"/><path fill="#322f41" d="M 497.992188 422.273438 L 497.992188 430.121094 L 455.835938 440.019531 Z M 497.992188 422.273438 " fill-opacity="1" fill-rule="nonzero"/><path fill="#322f41" d="M 498.441406 388.097656 C 515.066406 392.808594 520.894531 400.109375 511.476562 404.433594 C 502.027344 408.757812 480.886719 408.4375 464.261719 403.761719 C 447.632812 399.054688 441.804688 391.75 451.222656 387.425781 C 460.671875 383.101562 481.816406 383.421875 498.441406 388.097656 Z M 498.441406 388.097656 " fill-opacity="1" fill-rule="nonzero"/><path fill="#322f41" d="M 468.90625 366.574219 L 475.601562 385.3125 L 499.015625 389.988281 L 491.648438 369.9375 Z M 468.90625 366.574219 " fill-opacity="1" fill-rule="nonzero"/><path fill="#322f41" d="M 403.394531 352.417969 L 565.265625 391.527344 C 571.03125 392.9375 576.765625 389.058594 577.660156 383.199219 L 600.726562 230.261719 C 601.238281 226.800781 598.546875 223.664062 595.054688 223.695312 L 413.292969 224.78125 C 410.1875 224.816406 407.625 227.152344 407.304688 230.226562 L 395.738281 341.5625 C 395.195312 346.589844 398.460938 351.234375 403.394531 352.417969 Z M 403.394531 352.417969 " fill-opacity="1" fill-rule="nonzero"/><path fill="#8ed5a8" d="M 571.285156 371.699219 L 592.363281 231.734375 L 415.085938 232.789062 L 404.324219 335.15625 Z M 571.285156 371.699219 " fill-opacity="1" fill-rule="nonzero"/><path fill="#322f41" d="M 461.054688 462.535156 C 461.054688 462.535156 465.863281 464.648438 474.09375 463.6875 C 482.359375 462.695312 493.441406 458.46875 495.492188 457.1875 C 497.542969 455.871094 499.082031 452.863281 497.480469 451.644531 C 495.878906 450.429688 479.890625 447.832031 477.9375 448.699219 C 475.984375 449.5625 470.441406 451.835938 469.738281 452.507812 C 469.03125 453.148438 465.925781 457.761719 465.828125 458.210938 C 465.734375 458.628906 461.054688 462.535156 461.054688 462.535156 Z M 461.054688 462.535156 " fill-opacity="1" fill-rule="nonzero"/><path fill="#4e4b63" d="M 455.835938 458.050781 C 456.285156 460.964844 460.511719 463.367188 464.644531 462.726562 C 468.777344 462.085938 479.636719 453.375 484.089844 452.507812 C 488.542969 451.644531 495.171875 451.421875 497.128906 451.871094 C 499.082031 452.316406 492.996094 445.878906 489.183594 444.597656 C 485.371094 443.316406 474.960938 439.378906 469.097656 440.785156 C 463.234375 442.195312 454.328125 448.378906 455.835938 458.050781 Z M 455.835938 458.050781 " fill-opacity="1" fill-rule="nonzero"/><path fill="#ffa399" d="M 230.632812 217.351562 C 230.632812 217.351562 235.695312 233.175781 236.59375 245.632812 C 237.746094 255.59375 242.070312 255.882812 244.410156 256.972656 C 246.746094 258.03125 245.144531 262.671875 238.835938 264.980469 C 238.835938 264.980469 239.988281 289.097656 234.125 293.195312 C 228.261719 297.328125 207.410156 292.683594 204.65625 294.125 C 201.898438 295.566406 200.585938 312.160156 201.128906 317.027344 C 201.128906 317.027344 172.429688 302.421875 158.84375 301.558594 L 159.484375 276.476562 C 159.484375 276.476562 137.382812 233.6875 153.335938 215.910156 C 169.257812 198.136719 208.464844 191.570312 230.632812 217.351562 Z M 230.632812 217.351562 " fill-opacity="1" fill-rule="nonzero"/><path fill="#322f41" d="M 230.988281 282.242188 C 227.046875 283.363281 213.304688 288.136719 207.539062 286.503906 C 201.835938 284.902344 194.082031 266.070312 196.871094 240.507812 C 197.480469 235 202.1875 228.660156 206.160156 223.824219 C 209.394531 219.882812 214.296875 217.609375 219.421875 217.609375 C 237.554688 217.671875 244.183594 213.21875 236.398438 199.289062 C 235.886719 198.390625 235.3125 197.527344 234.636719 196.726562 C 232.234375 193.8125 225.894531 187.214844 215.675781 183.753906 C 195.269531 176.867188 154.585938 172.289062 140.074219 205.339844 C 140.074219 205.339844 120.949219 216.710938 136.070312 250.984375 C 147.3125 274.171875 161.28125 277.726562 161.28125 277.726562 C 161.28125 277.726562 172.875 273.402344 177.394531 267.605469 C 178.640625 265.972656 178.707031 263.730469 177.714844 261.90625 C 175.40625 257.742188 170.761719 247.425781 178.578125 242.015625 C 186.171875 236.761719 189.023438 245.921875 190.269531 255.5625 C 190.976562 262 192.898438 273.5 195.683594 281.570312 C 198.695312 290.347656 201.707031 296.367188 216.507812 297.136719 C 230.21875 297.839844 238.417969 298.515625 239.988281 285.894531 C 240.117188 284.101562 238.449219 280.128906 230.988281 282.242188 Z M 230.988281 282.242188 " fill-opacity="1" fill-rule="nonzero"/><path fill="#ffa399" d="M 254.433594 402.542969 C 254.433594 402.542969 297.585938 398.796875 311.90625 396.777344 C 326.191406 394.761719 333.976562 392.007812 339.261719 394.761719 C 344.515625 397.515625 354.222656 397.355469 359.667969 396.9375 C 365.113281 396.523438 372.867188 398.765625 376.550781 397.867188 C 380.234375 396.9375 379.722656 392.617188 373.957031 391.335938 C 368.1875 390.085938 362.230469 391.078125 359.570312 389.15625 C 356.882812 387.234375 359.410156 382.71875 363.320312 382.207031 C 367.261719 381.695312 375.683594 384.289062 379.882812 386.402344 C 384.078125 388.484375 388.242188 390.40625 390.515625 390.40625 C 392.757812 390.40625 394.359375 387.234375 389.84375 385.3125 C 385.328125 383.390625 378.792969 378.972656 378.792969 378.972656 C 378.792969 378.972656 390.933594 380.316406 394.007812 379.964844 C 397.117188 379.644531 398.367188 376.535156 393.753906 375.542969 C 389.140625 374.550781 373.089844 372.851562 371.167969 372.214844 C 371.167969 372.214844 373.859375 370.546875 372.769531 369.296875 C 371.679688 368.050781 369.503906 368.722656 365.339844 370.035156 C 361.140625 371.378906 341.601562 377.242188 336.988281 377.816406 C 332.375 378.394531 273.175781 374.488281 262.636719 373.8125 C 252.097656 373.140625 232.875 367.121094 232.875 367.121094 Z M 254.433594 402.542969 " fill-opacity="1" fill-rule="nonzero"/><path fill="#ffcb52" d="M 290.667969 506.832031 C 264.65625 515.09375 240.917969 520.476562 219.421875 522.652344 C 210.226562 523.613281 201.484375 523.902344 193.152344 523.582031 C 192.289062 523.582031 191.457031 523.484375 190.625 523.390625 C 188.382812 523.359375 186.105469 523.164062 183.960938 522.941406 C 182.359375 522.75 180.757812 522.589844 179.121094 522.332031 C 177.296875 522.109375 175.4375 521.820312 173.644531 521.46875 C 160.894531 501 123.574219 435.757812 121.910156 373.140625 C 121.910156 327.628906 149.683594 307.226562 149.683594 307.226562 L 150.707031 299.21875 C 150.707031 299.21875 180.148438 301.558594 204.238281 318.949219 C 208.5625 326.316406 208.242188 332.015625 208.242188 332.015625 C 208.242188 332.015625 250.398438 372.46875 265.136719 415.964844 C 275.996094 447.960938 286.117188 488.03125 290.667969 506.832031 Z M 290.667969 506.832031 " fill-opacity="1" fill-rule="nonzero"/><path fill="#ffa399" d="M 267.152344 404.882812 C 267.152344 404.882812 297.265625 423.265625 305.273438 426.628906 C 313.316406 429.960938 380.363281 416.925781 383.214844 416.253906 C 386.0625 415.582031 389.554688 404.050781 389.910156 401.710938 C 390.230469 399.375 391.414062 397.613281 393.433594 397.292969 C 395.449219 396.972656 397.851562 399.054688 397.179688 403.410156 C 397.179688 403.410156 404.132812 398.15625 407.304688 398.574219 C 410.472656 398.988281 415.34375 400.589844 419.1875 399.660156 C 423.03125 398.734375 430.65625 400.398438 430.65625 400.398438 C 430.65625 400.398438 434.917969 399.886719 437.351562 399.054688 C 439.785156 398.21875 441.195312 399.566406 441.546875 401.136719 C 441.867188 402.738281 438.632812 404.722656 435.363281 405.746094 C 435.363281 405.746094 440.972656 406.164062 443.308594 407.15625 C 445.648438 408.148438 445.902344 411.257812 443.308594 411.769531 C 440.714844 412.28125 433.089844 414.460938 430.433594 417.886719 C 427.742188 421.3125 423.578125 426.34375 418.804688 429.160156 C 414.03125 432.011719 405.828125 432.683594 396.988281 435.503906 C 388.113281 438.351562 334.105469 463.109375 312.511719 470.445312 C 290.921875 477.8125 256.324219 456.738281 256.324219 456.738281 C 256.324219 456.738281 260.617188 405.394531 267.152344 404.882812 Z M 267.152344 404.882812 " fill-opacity="1" fill-rule="nonzero"/><path fill="#ffcb52" d="M 266.480469 399.535156 C 266.480469 399.535156 267.984375 429.128906 259.464844 461.734375 C 259.464844 461.734375 200.746094 452.1875 157.597656 404.53125 C 139.367188 380.125 152.757812 353.347656 171.148438 344.316406 C 182.808594 338.582031 212.953125 342.648438 229.351562 365.039062 C 245.753906 387.492188 266.480469 399.535156 266.480469 399.535156 Z M 266.480469 399.535156 " fill-opacity="1" fill-rule="nonzero"/><path fill="#cc9e40" d="M 259.464844 461.734375 C 249.664062 460.230469 240.085938 457.472656 230.730469 454.207031 C 226.054688 452.574219 221.410156 450.714844 216.859375 448.730469 L 210.101562 445.558594 C 207.824219 444.535156 205.679688 443.285156 203.46875 442.132812 C 199.015625 439.890625 194.820312 437.167969 190.558594 434.605469 C 186.457031 431.753906 182.199219 429.160156 178.320312 425.988281 C 176.367188 424.421875 174.351562 422.980469 172.460938 421.3125 L 166.855469 416.316406 C 163.074219 413.050781 159.773438 409.269531 156.21875 405.746094 L 156.121094 405.617188 C 155 403.921875 153.816406 402.289062 152.757812 400.558594 C 151.863281 398.734375 150.773438 397.003906 150.066406 395.082031 C 149.394531 393.160156 148.53125 391.269531 148.179688 389.253906 L 147.503906 386.273438 L 147.152344 383.199219 C 146.800781 381.148438 147.089844 379.097656 147.023438 377.050781 C 147.34375 375.03125 147.378906 372.949219 147.984375 370.964844 C 148.820312 366.929688 150.546875 363.179688 152.503906 359.59375 C 154.585938 356.070312 157.117188 352.835938 160.03125 349.984375 C 163.042969 347.230469 166.308594 344.730469 169.992188 342.90625 C 171.148438 342.328125 171.882812 342.136719 172.84375 341.722656 L 176.015625 340.921875 C 178.066406 340.566406 180.085938 340.34375 182.132812 340.3125 C 186.203125 340.246094 190.238281 340.632812 194.179688 341.402344 C 198.085938 342.265625 201.996094 343.324219 205.648438 344.957031 C 209.363281 346.460938 212.855469 348.480469 216.1875 350.65625 C 219.453125 352.996094 222.625 355.460938 225.316406 358.410156 C 226.757812 359.816406 227.976562 361.386719 229.191406 362.957031 C 230.472656 364.527344 231.53125 366.0625 232.714844 367.632812 C 235.054688 370.707031 237.554688 373.652344 240.117188 376.570312 C 242.710938 379.453125 245.433594 382.238281 248.253906 384.894531 C 253.921875 390.214844 259.945312 395.175781 266.480469 399.5 C 259.6875 395.65625 253.378906 390.949219 247.421875 385.855469 C 244.441406 383.292969 241.589844 380.605469 238.804688 377.816406 C 236.046875 375.03125 233.421875 372.050781 230.953125 368.976562 C 228.488281 365.933594 226.246094 362.796875 223.457031 360.167969 C 220.800781 357.414062 217.722656 355.140625 214.585938 353.027344 C 211.347656 351.042969 207.984375 349.214844 204.398438 347.902344 C 200.875 346.460938 197.191406 345.5 193.472656 344.730469 C 189.757812 344.027344 185.976562 343.707031 182.230469 343.804688 C 180.339844 343.867188 178.515625 344.089844 176.71875 344.410156 L 174.222656 345.050781 C 173.390625 345.40625 172.269531 345.789062 171.660156 346.140625 C 168.359375 347.839844 165.378906 350.113281 162.65625 352.675781 C 160.03125 355.332031 157.722656 358.28125 155.867188 361.515625 C 154.136719 364.8125 152.566406 368.210938 151.894531 371.859375 C 151.347656 373.621094 151.316406 375.511719 150.996094 377.335938 C 151.027344 379.195312 150.742188 381.054688 151.0625 382.878906 L 151.347656 385.632812 L 151.957031 388.355469 C 152.277344 390.179688 153.015625 391.910156 153.625 393.671875 C 154.234375 395.433594 155.257812 397.035156 156.027344 398.734375 C 156.988281 400.335938 158.078125 401.871094 159.101562 403.472656 L 159.003906 403.34375 C 162.464844 406.804688 165.636719 410.550781 169.320312 413.785156 L 174.765625 418.71875 C 176.59375 420.351562 178.578125 421.792969 180.46875 423.363281 C 182.390625 424.902344 184.25 426.46875 186.265625 427.847656 L 192.226562 432.140625 C 196.359375 434.765625 200.425781 437.585938 204.75 439.921875 C 206.898438 441.105469 208.980469 442.421875 211.1875 443.476562 L 217.757812 446.808594 C 222.210938 448.859375 226.695312 450.941406 231.273438 452.796875 C 235.855469 454.65625 240.46875 456.320312 245.175781 457.859375 C 249.886719 459.269531 254.628906 460.710938 259.464844 461.734375 Z M 259.464844 461.734375 " fill-opacity="1" fill-rule="nonzero"/><path fill="#bdbab2" d="M 386 321.542969 L 284.578125 302.773438 C 282.722656 302.421875 281.410156 300.757812 281.535156 298.867188 L 285.347656 241.503906 C 285.476562 239.546875 287.109375 238.011719 289.066406 238.011719 L 394.074219 238.011719 C 396.28125 238.011719 398.011719 239.902344 397.789062 242.109375 L 390.390625 318.210938 C 390.164062 320.390625 388.144531 321.925781 386 321.542969 Z M 386 321.542969 " fill-opacity="1" fill-rule="nonzero"/><path fill="#38424d" d="M 397.148438 248.421875 L 285.027344 245.921875 L 285.378906 240.636719 C 285.476562 239.164062 286.726562 238.011719 288.199219 238.011719 L 395.035156 238.011719 C 396.699219 238.011719 398.011719 239.453125 397.851562 241.117188 Z M 397.148438 248.421875 " fill-opacity="1" fill-rule="nonzero"/><path fill="#d2c6cd" d="M 290.441406 242.207031 C 290.347656 243.070312 289.671875 243.746094 288.9375 243.746094 C 288.167969 243.746094 287.621094 243.039062 287.6875 242.175781 C 287.75 241.308594 288.457031 240.636719 289.226562 240.636719 C 289.992188 240.636719 290.539062 241.34375 290.441406 242.207031 Z M 290.441406 242.207031 " fill-opacity="1" fill-rule="nonzero"/><path fill="#d2c6cd" d="M 294.765625 242.238281 C 294.671875 243.105469 293.996094 243.808594 293.230469 243.808594 C 292.460938 243.808594 291.914062 243.070312 292.011719 242.207031 C 292.109375 241.34375 292.78125 240.636719 293.550781 240.636719 C 294.285156 240.667969 294.832031 241.375 294.765625 242.238281 Z M 294.765625 242.238281 " fill-opacity="1" fill-rule="nonzero"/><path fill="#d2c6cd" d="M 299.058594 242.304688 C 298.964844 243.199219 298.289062 243.90625 297.523438 243.871094 C 296.753906 243.871094 296.207031 243.136719 296.304688 242.269531 C 296.402344 241.40625 297.074219 240.667969 297.84375 240.703125 C 298.578125 240.703125 299.125 241.40625 299.058594 242.304688 Z M 299.058594 242.304688 " fill-opacity="1" fill-rule="nonzero"/><path fill="#ffffff" d="M 294.351562 300.5625 L 293.132812 300.339844 L 296.6875 250.054688 L 297.9375 250.117188 Z M 294.351562 300.5625 " fill-opacity="1" fill-rule="nonzero"/><path fill="#ffffff" d="M 293.484375 253.449219 L 291.371094 253.351562 L 291.5 251.429688 L 293.613281 251.496094 Z M 293.484375 253.449219 " fill-opacity="1" fill-rule="nonzero"/><path fill="#ffffff" d="M 293.164062 257.644531 L 291.082031 257.550781 L 291.210938 255.628906 L 293.324219 255.722656 Z M 293.164062 257.644531 " fill-opacity="1" fill-rule="nonzero"/><path fill="#ffffff" d="M 292.875 261.871094 L 290.792969 261.746094 L 290.921875 259.824219 L 293.003906 259.949219 Z M 292.875 261.871094 " fill-opacity="1" fill-rule="nonzero"/><path fill="#ffffff" d="M 292.589844 266.101562 L 290.507812 265.941406 L 290.632812 264.019531 L 292.714844 264.179688 Z M 292.589844 266.101562 " fill-opacity="1" fill-rule="nonzero"/><path fill="#ffffff" d="M 292.300781 270.328125 L 290.21875 270.136719 L 290.347656 268.246094 L 292.429688 268.40625 Z M 292.300781 270.328125 " fill-opacity="1" fill-rule="nonzero"/><path fill="#ffffff" d="M 292.011719 274.554688 L 289.929688 274.332031 L 290.058594 272.441406 L 292.140625 272.632812 Z M 292.011719 274.554688 " fill-opacity="1" fill-rule="nonzero"/><path fill="#ffffff" d="M 291.691406 278.785156 L 289.640625 278.558594 L 289.769531 276.636719 L 291.851562 276.863281 Z M 291.691406 278.785156 " fill-opacity="1" fill-rule="nonzero"/><path fill="#ffffff" d="M 291.402344 283.011719 L 289.351562 282.753906 L 289.480469 280.835938 L 291.53125 281.089844 Z M 291.402344 283.011719 " fill-opacity="1" fill-rule="nonzero"/><path fill="#ffffff" d="M 291.113281 287.238281 L 289.066406 286.953125 L 289.191406 285.03125 L 291.242188 285.285156 Z M 291.113281 287.238281 " fill-opacity="1" fill-rule="nonzero"/><path fill="#ffffff" d="M 290.828125 291.46875 L 288.777344 291.148438 L 288.90625 289.226562 L 290.953125 289.515625 Z M 290.828125 291.46875 " fill-opacity="1" fill-rule="nonzero"/><path fill="#ffffff" d="M 290.507812 295.664062 L 288.488281 295.34375 L 288.617188 293.421875 L 290.667969 293.742188 Z M 290.507812 295.664062 " fill-opacity="1" fill-rule="nonzero"/><path fill="#ffffff" d="M 302.96875 251.304688 L 301.332031 252.777344 C 301.207031 252.871094 301.207031 253.03125 301.300781 253.160156 L 302.679688 254.667969 C 302.773438 254.792969 302.96875 254.792969 303.09375 254.699219 C 303.160156 254.632812 303.191406 254.570312 303.191406 254.507812 C 303.191406 254.441406 303.160156 254.378906 303.128906 254.3125 C 303.128906 254.3125 302.199219 253.320312 301.941406 253.03125 C 302.261719 252.746094 303.382812 251.75 303.382812 251.75 C 303.449219 251.6875 303.480469 251.625 303.480469 251.558594 C 303.480469 251.496094 303.449219 251.398438 303.382812 251.335938 C 303.289062 251.207031 303.09375 251.207031 302.96875 251.304688 Z M 302.96875 251.304688 " fill-opacity="1" fill-rule="nonzero"/><path fill="#ffffff" d="M 310.175781 251.558594 C 310.109375 251.625 310.078125 251.6875 310.078125 251.75 C 310.078125 251.816406 310.109375 251.878906 310.144531 251.945312 C 310.144531 251.945312 311.105469 253.066406 311.359375 253.351562 C 311.039062 253.640625 309.984375 254.570312 309.984375 254.570312 C 309.917969 254.632812 309.886719 254.699219 309.886719 254.761719 C 309.886719 254.828125 309.886719 254.921875 309.949219 254.988281 C 310.046875 255.082031 310.238281 255.113281 310.367188 254.988281 L 311.9375 253.578125 C 312.066406 253.480469 312.066406 253.289062 311.96875 253.191406 L 310.558594 251.558594 C 310.496094 251.464844 310.304688 251.464844 310.175781 251.558594 Z M 310.175781 251.558594 " fill-opacity="1" fill-rule="nonzero"/><path fill="#ffffff" d="M 307.804688 251.625 L 304.761719 254.25 C 304.632812 254.347656 304.632812 254.539062 304.730469 254.632812 C 304.824219 254.761719 305.019531 254.761719 305.144531 254.632812 L 308.1875 252.007812 C 308.316406 251.910156 308.316406 251.71875 308.222656 251.625 C 308.09375 251.527344 307.933594 251.527344 307.804688 251.625 Z M 307.804688 251.625 " fill-opacity="1" fill-rule="nonzero"/><path fill="#ffffff" d="M 299.539062 298.195312 L 297.9375 299.476562 C 297.808594 299.570312 297.808594 299.730469 297.90625 299.859375 L 299.21875 301.523438 C 299.316406 301.652344 299.507812 301.683594 299.636719 301.589844 C 299.699219 301.558594 299.730469 301.460938 299.730469 301.398438 C 299.730469 301.332031 299.699219 301.238281 299.667969 301.203125 C 299.667969 301.203125 298.769531 300.082031 298.515625 299.761719 C 298.804688 299.507812 299.925781 298.640625 299.925781 298.640625 C 299.988281 298.578125 300.019531 298.515625 300.019531 298.449219 C 300.019531 298.386719 299.988281 298.289062 299.957031 298.226562 C 299.859375 298.128906 299.667969 298.097656 299.539062 298.195312 Z M 299.539062 298.195312 " fill-opacity="1" fill-rule="nonzero"/><path fill="#ffffff" d="M 306.585938 299.316406 C 306.523438 299.378906 306.492188 299.441406 306.492188 299.507812 C 306.492188 299.570312 306.492188 299.636719 306.554688 299.699219 C 306.554688 299.699219 307.484375 300.949219 307.742188 301.269531 C 307.421875 301.523438 306.394531 302.324219 306.394531 302.324219 C 306.332031 302.359375 306.300781 302.421875 306.300781 302.519531 C 306.300781 302.582031 306.300781 302.679688 306.363281 302.742188 C 306.460938 302.871094 306.652344 302.902344 306.78125 302.804688 L 308.316406 301.589844 C 308.414062 301.492188 308.445312 301.332031 308.347656 301.203125 L 306.972656 299.378906 C 306.875 299.28125 306.714844 299.25 306.585938 299.316406 Z M 306.585938 299.316406 " fill-opacity="1" fill-rule="nonzero"/><path fill="#ffffff" d="M 304.25 299.121094 L 301.300781 301.398438 C 301.171875 301.492188 301.171875 301.652344 301.269531 301.78125 C 301.367188 301.910156 301.558594 301.941406 301.6875 301.84375 L 304.664062 299.570312 C 304.792969 299.476562 304.792969 299.316406 304.695312 299.15625 C 304.570312 299.058594 304.375 299.027344 304.25 299.121094 Z M 304.25 299.121094 " fill-opacity="1" fill-rule="nonzero"/><path fill="#ffffff" d="M 308.285156 257.933594 L 298.738281 257.453125 L 298.867188 255.691406 L 308.414062 256.140625 Z M 308.285156 257.933594 " fill-opacity="1" fill-rule="nonzero"/><path fill="#ffffff" d="M 307.644531 282.113281 L 297.074219 280.867188 L 297.203125 279.105469 L 307.773438 280.289062 Z M 307.644531 282.113281 " fill-opacity="1" fill-rule="nonzero"/><path fill="#ffffff" d="M 303.09375 297.679688 L 295.953125 296.527344 L 296.078125 294.765625 L 303.222656 295.886719 Z M 303.09375 297.679688 " fill-opacity="1" fill-rule="nonzero"/><path fill="#ffffff" d="M 316.003906 262.480469 L 300.820312 261.519531 L 300.949219 259.726562 L 316.132812 260.625 Z M 316.003906 262.480469 " fill-opacity="1" fill-rule="nonzero"/><path fill="#ffffff" d="M 312.832031 286.917969 L 299.125 285.15625 L 299.25 283.363281 L 312.960938 285.0625 Z M 312.832031 286.917969 " fill-opacity="1" fill-rule="nonzero"/><path fill="#ffffff" d="M 312.257812 290.796875 L 298.835938 288.9375 L 298.964844 287.175781 L 312.417969 288.96875 Z M 312.257812 290.796875 " fill-opacity="1" fill-rule="nonzero"/><path fill="#ffffff" d="M 305.722656 293.964844 L 298.546875 292.875 L 298.675781 291.117188 L 305.882812 292.171875 Z M 305.722656 293.964844 " fill-opacity="1" fill-rule="nonzero"/><path fill="#ffffff" d="M 338.042969 298.800781 L 307.453125 294.222656 L 307.582031 292.398438 L 338.207031 296.847656 Z M 338.042969 298.800781 " fill-opacity="1" fill-rule="nonzero"/><path fill="#ffffff" d="M 336.15625 294.125 L 313.859375 291.019531 L 313.988281 289.195312 L 336.316406 292.171875 Z M 336.15625 294.125 " fill-opacity="1" fill-rule="nonzero"/><path fill="#ffffff" d="M 345.058594 295.375 L 337.851562 294.382812 L 338.011719 292.398438 L 345.21875 293.390625 Z M 345.058594 295.375 " fill-opacity="1" fill-rule="nonzero"/><path fill="#ffffff" d="M 363 293.355469 L 348.648438 291.5 L 348.839844 289.515625 L 363.191406 291.277344 Z M 363 293.355469 " fill-opacity="1" fill-rule="nonzero"/><path fill="#ffffff" d="M 346.855469 291.277344 L 314.308594 287.113281 L 314.4375 285.253906 L 347.015625 289.289062 Z M 346.855469 291.277344 " fill-opacity="1" fill-rule="nonzero"/><path fill="#ffffff" d="M 326.289062 263.121094 L 317.574219 262.578125 L 317.703125 260.71875 L 326.449219 261.230469 Z M 326.289062 263.121094 " fill-opacity="1" fill-rule="nonzero"/><path fill="#ffffff" d="M 310.238281 270.328125 L 300.246094 269.496094 L 300.371094 267.703125 L 310.367188 268.503906 Z M 310.238281 270.328125 " fill-opacity="1" fill-rule="nonzero"/><path fill="#ffffff" d="M 328.113281 271.832031 L 311.871094 270.488281 L 312 268.664062 L 328.242188 269.945312 Z M 328.113281 271.832031 " fill-opacity="1" fill-rule="nonzero"/><path fill="#ffffff" d="M 343.457031 264.210938 L 327.859375 263.21875 L 328.019531 261.296875 L 343.617188 262.226562 Z M 343.457031 264.210938 " fill-opacity="1" fill-rule="nonzero"/><path fill="#ffffff" d="M 317.800781 266.835938 L 300.53125 265.554688 L 300.660156 263.761719 L 317.925781 264.980469 Z M 317.800781 266.835938 " fill-opacity="1" fill-rule="nonzero"/><path fill="#ffffff" d="M 336.476562 268.214844 L 319.5625 266.964844 L 319.722656 265.109375 L 336.636719 266.261719 Z M 336.476562 268.214844 " fill-opacity="1" fill-rule="nonzero"/><path fill="#ffffff" d="M 349.929688 269.207031 L 338.140625 268.34375 L 338.300781 266.390625 L 350.121094 267.191406 Z M 349.929688 269.207031 " fill-opacity="1" fill-rule="nonzero"/><path fill="#ffffff" d="M 320.328125 275.390625 L 299.957031 273.433594 L 300.085938 271.640625 L 320.488281 273.5 Z M 320.328125 275.390625 " fill-opacity="1" fill-rule="nonzero"/><path fill="#ffffff" d="M 332.757812 276.574219 L 321.898438 275.515625 L 322.058594 273.660156 L 332.917969 274.652344 Z M 332.757812 276.574219 " fill-opacity="1" fill-rule="nonzero"/><path fill="#ffffff" d="M 320.007812 279.328125 L 299.699219 277.183594 L 299.828125 275.390625 L 320.167969 277.472656 Z M 320.007812 279.328125 " fill-opacity="1" fill-rule="nonzero"/><path fill="#ffffff" d="M 340.449219 281.507812 L 321.578125 279.488281 L 321.738281 277.632812 L 340.609375 279.519531 Z M 340.449219 281.507812 " fill-opacity="1" fill-rule="nonzero"/><path fill="#ffffff" d="M 355.664062 278.753906 L 334.585938 276.734375 L 334.746094 274.8125 L 355.855469 276.734375 Z M 355.664062 278.753906 " fill-opacity="1" fill-rule="nonzero"/><path fill="#ffffff" d="M 315.011719 258.285156 L 310.109375 258.03125 L 310.238281 256.234375 L 315.171875 256.460938 Z M 315.011719 258.285156 " fill-opacity="1" fill-rule="nonzero"/><path fill="#fffaf3" d="M 614.628906 212.835938 L 530.890625 213.414062 C 529.351562 213.414062 528.457031 212.003906 528.777344 210.144531 L 538.707031 154.480469 C 539.027344 152.589844 540.566406 150.988281 542.199219 150.796875 L 628.722656 141.890625 C 630.550781 141.730469 631.800781 143.171875 631.445312 144.96875 L 618.664062 209.25 C 618.28125 211.140625 616.421875 212.804688 614.628906 212.835938 Z M 614.628906 212.835938 " fill-opacity="1" fill-rule="nonzero"/><path fill="#38424d" d="M 630.355469 150.21875 L 537.9375 158.738281 L 538.835938 153.648438 C 539.09375 152.238281 540.246094 151.019531 541.460938 150.859375 L 629.492188 141.796875 C 630.871094 141.667969 631.832031 142.757812 631.542969 144.132812 Z M 630.355469 150.21875 " fill-opacity="1" fill-rule="nonzero"/><path fill="#d2c6cd" d="M 542.871094 154.640625 C 542.710938 155.472656 542.070312 156.175781 541.429688 156.242188 C 540.789062 156.304688 540.4375 155.695312 540.597656 154.894531 C 540.757812 154.09375 541.398438 153.359375 542.039062 153.292969 C 542.648438 153.199219 543.03125 153.808594 542.871094 154.640625 Z M 542.871094 154.640625 " fill-opacity="1" fill-rule="nonzero"/><path fill="#d2c6cd" d="M 546.394531 154.253906 C 546.234375 155.089844 545.59375 155.824219 544.953125 155.890625 C 544.3125 155.953125 543.960938 155.34375 544.121094 154.511719 C 544.28125 153.679688 544.921875 152.972656 545.5625 152.878906 C 546.203125 152.8125 546.585938 153.421875 546.394531 154.253906 Z M 546.394531 154.253906 " fill-opacity="1" fill-rule="nonzero"/><path fill="#d2c6cd" d="M 549.953125 153.871094 C 549.792969 154.703125 549.152344 155.441406 548.511719 155.503906 C 547.871094 155.570312 547.515625 154.960938 547.675781 154.128906 C 547.835938 153.292969 548.476562 152.558594 549.117188 152.492188 C 549.757812 152.398438 550.113281 153.039062 549.953125 153.871094 Z M 549.953125 153.871094 " fill-opacity="1" fill-rule="nonzero"/><path fill="#614bee" d="M 548.605469 162.167969 L 547.101562 163.734375 C 547.003906 163.832031 546.972656 163.992188 547.035156 164.089844 L 547.996094 165.335938 C 548.0625 165.433594 548.222656 165.433594 548.351562 165.304688 C 548.414062 165.242188 548.445312 165.175781 548.445312 165.113281 C 548.445312 165.050781 548.445312 164.984375 548.414062 164.921875 C 548.414062 164.921875 547.773438 164.089844 547.582031 163.832031 C 547.871094 163.542969 548.925781 162.488281 548.925781 162.488281 C 548.992188 162.421875 549.023438 162.359375 549.023438 162.292969 C 549.023438 162.230469 549.023438 162.167969 548.992188 162.101562 C 548.863281 162.039062 548.703125 162.070312 548.605469 162.167969 Z M 548.605469 162.167969 " fill-opacity="1" fill-rule="nonzero"/><path fill="#614bee" d="M 554.53125 161.621094 C 554.46875 161.6875 554.4375 161.75 554.402344 161.8125 C 554.402344 161.878906 554.402344 161.941406 554.4375 161.972656 C 554.4375 161.972656 555.109375 162.902344 555.300781 163.160156 C 555.011719 163.449219 554.019531 164.441406 554.019531 164.441406 C 553.957031 164.503906 553.921875 164.570312 553.921875 164.632812 C 553.921875 164.695312 553.921875 164.761719 553.957031 164.824219 C 554.019531 164.921875 554.179688 164.890625 554.308594 164.792969 L 555.78125 163.320312 C 555.878906 163.222656 555.910156 163.0625 555.847656 162.96875 L 554.851562 161.621094 C 554.820312 161.492188 554.660156 161.527344 554.53125 161.621094 Z M 554.53125 161.621094 " fill-opacity="1" fill-rule="nonzero"/><path fill="#614bee" d="M 552.546875 161.941406 L 549.726562 164.730469 C 549.597656 164.824219 549.566406 165.015625 549.664062 165.082031 C 549.726562 165.175781 549.886719 165.144531 550.015625 165.050781 L 552.835938 162.261719 C 552.929688 162.132812 552.960938 161.972656 552.898438 161.878906 C 552.835938 161.8125 552.675781 161.847656 552.546875 161.941406 Z M 552.546875 161.941406 " fill-opacity="1" fill-rule="nonzero"/><path fill="#614bee" d="M 540.46875 206.75 L 538.996094 208.222656 C 538.898438 208.320312 538.867188 208.480469 538.929688 208.609375 L 539.859375 209.984375 C 539.925781 210.082031 540.085938 210.082031 540.179688 209.984375 C 540.246094 209.921875 540.277344 209.859375 540.277344 209.792969 C 540.277344 209.730469 540.277344 209.664062 540.246094 209.601562 C 540.246094 209.601562 539.636719 208.671875 539.445312 208.417969 C 539.734375 208.128906 540.757812 207.136719 540.757812 207.136719 C 540.820312 207.070312 540.855469 207.007812 540.855469 206.941406 C 540.855469 206.878906 540.855469 206.816406 540.820312 206.75 C 540.726562 206.65625 540.566406 206.65625 540.46875 206.75 Z M 540.46875 206.75 " fill-opacity="1" fill-rule="nonzero"/><path fill="#614bee" d="M 546.265625 206.6875 C 546.203125 206.75 546.171875 206.816406 546.171875 206.878906 C 546.171875 206.941406 546.171875 207.007812 546.203125 207.070312 C 546.203125 207.070312 546.84375 208.097656 547.035156 208.351562 C 546.746094 208.640625 545.785156 209.570312 545.785156 209.570312 C 545.722656 209.632812 545.691406 209.699219 545.691406 209.761719 C 545.691406 209.824219 545.691406 209.890625 545.722656 209.953125 C 545.785156 210.050781 545.945312 210.050781 546.042969 209.953125 L 547.484375 208.542969 C 547.582031 208.449219 547.613281 208.289062 547.550781 208.160156 L 546.585938 206.6875 C 546.523438 206.589844 546.363281 206.589844 546.265625 206.6875 Z M 546.265625 206.6875 " fill-opacity="1" fill-rule="nonzero"/><path fill="#614bee" d="M 544.3125 206.847656 L 541.558594 209.503906 C 541.429688 209.601562 541.398438 209.792969 541.496094 209.890625 C 541.558594 209.984375 541.71875 209.984375 541.816406 209.890625 L 544.570312 207.230469 C 544.664062 207.136719 544.699219 206.941406 544.632812 206.847656 C 544.570312 206.75 544.441406 206.75 544.3125 206.847656 Z M 544.3125 206.847656 " fill-opacity="1" fill-rule="nonzero"/><path fill="#614bee" d="M 552.257812 167.738281 L 544.410156 168.378906 L 544.699219 166.714844 L 552.578125 166.042969 Z M 552.257812 167.738281 " fill-opacity="1" fill-rule="nonzero"/><path fill="#614bee" d="M 549.085938 190.351562 L 540.339844 190.703125 L 540.660156 189.039062 L 549.375 188.65625 Z M 549.085938 190.351562 " fill-opacity="1" fill-rule="nonzero"/><path fill="#614bee" d="M 543.480469 205.695312 L 537.617188 205.789062 L 537.90625 204.09375 L 543.800781 203.996094 Z M 543.480469 205.695312 " fill-opacity="1" fill-rule="nonzero"/><path fill="#e75582" d="M 558.214844 171.039062 L 545.660156 171.96875 L 545.980469 170.269531 L 558.535156 169.308594 Z M 558.214844 171.039062 " fill-opacity="1" fill-rule="nonzero"/><path fill="#8e7af6" d="M 552.898438 194.066406 L 541.558594 194.484375 L 541.878906 192.785156 L 553.21875 192.335938 Z M 552.898438 194.066406 " fill-opacity="1" fill-rule="nonzero"/><path fill="#e75582" d="M 552 197.78125 L 540.917969 198.101562 L 541.207031 196.40625 L 552.320312 196.054688 Z M 552 197.78125 " fill-opacity="1" fill-rule="nonzero"/><path fill="#614bee" d="M 546.140625 201.753906 L 540.214844 201.882812 L 540.535156 200.183594 L 546.460938 200.058594 Z M 546.140625 201.753906 " fill-opacity="1" fill-rule="nonzero"/><path fill="#614bee" d="M 572.792969 201.113281 L 547.550781 201.722656 L 547.871094 200.023438 L 573.144531 199.320312 Z M 572.792969 201.113281 " fill-opacity="1" fill-rule="nonzero"/><path fill="#e75582" d="M 571.703125 197.175781 L 553.28125 197.75 L 553.601562 196.019531 L 572.023438 195.414062 Z M 571.703125 197.175781 " fill-opacity="1" fill-rule="nonzero"/><path fill="#e75582" d="M 579.039062 196.949219 L 573.113281 197.140625 L 573.433594 195.347656 L 579.390625 195.125 Z M 579.039062 196.949219 " fill-opacity="1" fill-rule="nonzero"/><path fill="#8e7af6" d="M 594.285156 192.496094 L 582.464844 192.976562 L 582.820312 191.152344 L 594.671875 190.640625 Z M 594.285156 192.496094 " fill-opacity="1" fill-rule="nonzero"/><path fill="#8e7af6" d="M 580.960938 193.042969 L 554.082031 194.035156 L 554.402344 192.304688 L 581.3125 191.214844 Z M 580.960938 193.042969 " fill-opacity="1" fill-rule="nonzero"/><path fill="#e75582" d="M 566.671875 170.398438 L 559.496094 170.941406 L 559.816406 169.210938 L 567.027344 168.667969 Z M 566.671875 170.398438 " fill-opacity="1" fill-rule="nonzero"/><path fill="#614bee" d="M 552.546875 179.015625 L 544.28125 179.527344 L 544.601562 177.859375 L 552.867188 177.316406 Z M 552.546875 179.015625 " fill-opacity="1" fill-rule="nonzero"/><path fill="#614bee" d="M 567.28125 178.117188 L 553.890625 178.949219 L 554.210938 177.21875 L 567.601562 176.355469 Z M 567.28125 178.117188 " fill-opacity="1" fill-rule="nonzero"/><path fill="#e75582" d="M 580.863281 169.371094 L 567.988281 170.300781 L 568.308594 168.570312 L 581.183594 167.613281 Z M 580.863281 169.371094 " fill-opacity="1" fill-rule="nonzero"/><path fill="#8e7af6" d="M 559.210938 174.816406 L 544.984375 175.777344 L 545.273438 174.113281 L 559.53125 173.089844 Z M 559.210938 174.816406 " fill-opacity="1" fill-rule="nonzero"/><path fill="#8e7af6" d="M 574.617188 173.792969 L 560.683594 174.722656 L 561.003906 172.992188 L 574.96875 172.03125 Z M 574.617188 173.792969 " fill-opacity="1" fill-rule="nonzero"/><path fill="#8e7af6" d="M 585.734375 173.054688 L 575.996094 173.695312 L 576.347656 171.933594 L 586.085938 171.261719 Z M 585.734375 173.054688 " fill-opacity="1" fill-rule="nonzero"/><path fill="#e75582" d="M 560.425781 182.34375 L 543.609375 183.273438 L 543.929688 181.574219 L 560.746094 180.613281 Z M 560.425781 182.34375 " fill-opacity="1" fill-rule="nonzero"/><path fill="#e75582" d="M 570.675781 181.800781 L 561.707031 182.28125 L 562.027344 180.550781 L 571.03125 180.007812 Z M 570.675781 181.800781 " fill-opacity="1" fill-rule="nonzero"/><path fill="#614bee" d="M 559.753906 186.027344 L 542.96875 186.859375 L 543.257812 185.164062 L 560.074219 184.296875 Z M 559.753906 186.027344 " fill-opacity="1" fill-rule="nonzero"/><path fill="#614bee" d="M 576.605469 185.195312 L 561.035156 185.964844 L 561.355469 184.234375 L 576.925781 183.402344 Z M 576.605469 185.195312 " fill-opacity="1" fill-rule="nonzero"/><path fill="#e75582" d="M 589.578125 180.742188 L 572.183594 181.703125 L 572.503906 179.941406 L 589.929688 178.917969 Z M 589.578125 180.742188 " fill-opacity="1" fill-rule="nonzero"/><path fill="#614bee" d="M 557.832031 167.292969 L 553.761719 167.613281 L 554.082031 165.914062 L 558.152344 165.59375 Z M 557.832031 167.292969 " fill-opacity="1" fill-rule="nonzero"/><path fill="#334d5c" d="M 404.773438 181.128906 L 404.097656 183.402344 L 393.144531 178.789062 L 393.65625 177.058594 L 407.527344 171.933594 L 406.824219 174.273438 L 396.957031 177.859375 Z M 404.773438 181.128906 " fill-opacity="1" fill-rule="nonzero"/><path fill="#334d5c" d="M 407.238281 184.714844 L 419.058594 169.308594 L 421.527344 169.050781 L 409.546875 184.875 Z M 407.238281 184.714844 " fill-opacity="1" fill-rule="nonzero"/><path fill="#334d5c" d="M 423.480469 173.3125 L 424.34375 170.492188 L 435.042969 175.84375 L 434.179688 178.660156 L 420.117188 184.332031 L 420.949219 181.574219 L 431.074219 177.316406 Z M 423.480469 173.3125 " fill-opacity="1" fill-rule="nonzero"/><path fill="#334d5c" d="M 488.285156 242.078125 C 488.222656 242.078125 488.15625 242.078125 488.09375 242.078125 C 487.484375 241.984375 487.066406 241.40625 487.195312 240.796875 L 487.324219 240.125 C 487.421875 239.515625 488.027344 239.101562 488.605469 239.226562 C 489.214844 239.324219 489.632812 239.902344 489.503906 240.507812 L 489.375 241.183594 C 489.277344 241.695312 488.796875 242.078125 488.285156 242.078125 Z M 488.285156 242.078125 " fill-opacity="1" fill-rule="nonzero"/><path fill="#334d5c" d="M 489.117188 237.019531 C 489.054688 237.019531 488.992188 237.019531 488.925781 237.019531 C 488.316406 236.921875 487.902344 236.34375 488.027344 235.738281 L 488.253906 234.425781 C 488.351562 233.816406 488.957031 233.398438 489.535156 233.527344 C 490.144531 233.625 490.558594 234.199219 490.433594 234.808594 L 490.207031 236.121094 C 490.144531 236.632812 489.664062 237.019531 489.117188 237.019531 Z M 337.722656 234.167969 C 337.691406 234.167969 337.628906 234.167969 337.5625 234.167969 C 336.957031 234.070312 336.539062 233.527344 336.601562 232.917969 L 336.796875 231.605469 C 336.890625 230.996094 337.4375 230.546875 338.042969 230.644531 C 338.652344 230.742188 339.070312 231.285156 339.007812 231.894531 L 338.8125 233.207031 C 338.75 233.75 338.269531 234.167969 337.722656 234.167969 Z M 490.078125 231.316406 C 490.015625 231.316406 489.953125 231.316406 489.886719 231.316406 C 489.277344 231.222656 488.863281 230.644531 488.992188 230.035156 L 489.214844 228.722656 C 489.3125 228.113281 489.855469 227.699219 490.496094 227.824219 C 491.105469 227.921875 491.519531 228.5 491.394531 229.105469 L 491.167969 230.421875 C 491.105469 230.933594 490.625 231.316406 490.078125 231.316406 Z M 338.492188 228.433594 C 338.460938 228.433594 338.398438 228.433594 338.332031 228.433594 C 337.722656 228.339844 337.308594 227.792969 337.371094 227.183594 L 337.5625 225.871094 C 337.660156 225.261719 338.203125 224.785156 338.8125 224.910156 C 339.421875 225.007812 339.839844 225.550781 339.773438 226.160156 L 339.582031 227.472656 C 339.519531 228.019531 339.039062 228.433594 338.492188 228.433594 Z M 491.039062 225.617188 C 490.976562 225.617188 490.914062 225.617188 490.847656 225.617188 C 490.238281 225.519531 489.824219 224.941406 489.953125 224.335938 L 490.175781 223.023438 C 490.273438 222.414062 490.847656 221.996094 491.457031 222.125 C 492.066406 222.222656 492.480469 222.796875 492.355469 223.40625 L 492.128906 224.71875 C 492.066406 225.230469 491.585938 225.617188 491.039062 225.617188 Z M 339.261719 222.703125 C 339.230469 222.703125 339.167969 222.703125 339.101562 222.703125 C 338.492188 222.605469 338.078125 222.0625 338.140625 221.453125 L 338.332031 220.140625 C 338.429688 219.53125 338.972656 219.082031 339.582031 219.179688 C 340.191406 219.273438 340.609375 219.820312 340.542969 220.425781 L 340.351562 221.742188 C 340.289062 222.285156 339.808594 222.703125 339.261719 222.703125 Z M 492.035156 219.914062 C 491.96875 219.914062 491.90625 219.914062 491.839844 219.914062 C 491.234375 219.820312 490.816406 219.242188 490.945312 218.632812 L 491.167969 217.320312 C 491.265625 216.710938 491.839844 216.296875 492.449219 216.421875 C 493.058594 216.519531 493.476562 217.097656 493.347656 217.703125 L 493.121094 219.019531 C 493.027344 219.53125 492.546875 219.914062 492.035156 219.914062 Z M 340.03125 216.96875 C 340 216.96875 339.933594 216.96875 339.871094 216.96875 C 339.261719 216.871094 338.847656 216.328125 338.910156 215.71875 L 339.101562 214.40625 C 339.199219 213.796875 339.742188 213.347656 340.351562 213.445312 C 340.960938 213.539062 341.375 214.085938 341.3125 214.695312 L 341.121094 216.007812 C 341.054688 216.550781 340.574219 216.96875 340.03125 216.96875 Z M 492.996094 214.214844 C 492.929688 214.214844 492.867188 214.214844 492.800781 214.214844 C 492.195312 214.117188 491.777344 213.539062 491.90625 212.933594 L 492.128906 211.621094 C 492.226562 211.011719 492.800781 210.59375 493.410156 210.722656 C 494.019531 210.820312 494.4375 211.394531 494.308594 212.003906 L 494.082031 213.316406 C 493.988281 213.828125 493.507812 214.214844 492.996094 214.214844 Z M 340.894531 211.265625 C 340.800781 211.265625 340.671875 211.265625 340.574219 211.203125 C 340 211.011719 339.648438 210.402344 339.839844 209.792969 C 340 209.3125 340.191406 208.832031 340.414062 208.382812 C 340.703125 207.839844 341.375 207.617188 341.921875 207.902344 C 342.464844 208.191406 342.691406 208.863281 342.402344 209.410156 C 342.242188 209.761719 342.082031 210.113281 341.984375 210.464844 C 341.792969 210.945312 341.375 211.265625 340.894531 211.265625 Z M 493.25 208.511719 C 492.769531 208.511719 492.320312 208.191406 492.160156 207.679688 C 492.066406 207.296875 491.9375 206.941406 491.777344 206.621094 C 491.519531 206.078125 491.746094 205.40625 492.320312 205.148438 C 492.867188 204.894531 493.539062 205.117188 493.796875 205.695312 C 494.019531 206.140625 494.179688 206.621094 494.308594 207.136719 C 494.46875 207.742188 494.117188 208.351562 493.539062 208.511719 C 493.441406 208.480469 493.347656 208.511719 493.25 208.511719 Z M 344.386719 206.847656 C 344.003906 206.847656 343.652344 206.65625 343.425781 206.300781 C 343.105469 205.757812 343.296875 205.085938 343.8125 204.765625 C 344.257812 204.507812 344.707031 204.285156 345.1875 204.125 C 345.765625 203.933594 346.40625 204.21875 346.597656 204.796875 C 346.824219 205.375 346.503906 206.015625 345.925781 206.238281 C 345.574219 206.367188 345.21875 206.527344 344.898438 206.71875 C 344.773438 206.78125 344.578125 206.847656 344.386719 206.847656 Z M 349.992188 205.757812 C 349.386719 205.757812 348.90625 205.277344 348.871094 204.667969 C 348.871094 204.058594 349.351562 203.546875 349.960938 203.546875 L 351.308594 203.515625 C 351.308594 203.515625 351.308594 203.515625 351.339844 203.515625 C 351.949219 203.515625 352.429688 203.996094 352.460938 204.605469 C 352.460938 205.214844 351.980469 205.726562 351.371094 205.726562 L 349.992188 205.757812 C 350.027344 205.757812 349.992188 205.757812 349.992188 205.757812 Z M 355.761719 205.628906 C 355.152344 205.628906 354.671875 205.148438 354.636719 204.539062 C 354.636719 203.933594 355.121094 203.417969 355.726562 203.417969 L 357.074219 203.386719 C 357.074219 203.386719 357.074219 203.386719 357.105469 203.386719 C 357.714844 203.386719 358.195312 203.867188 358.226562 204.476562 C 358.226562 205.085938 357.746094 205.597656 357.136719 205.597656 L 355.761719 205.628906 C 355.792969 205.628906 355.792969 205.628906 355.761719 205.628906 Z M 361.558594 205.5 C 360.949219 205.5 360.46875 205.019531 360.4375 204.414062 C 360.4375 203.804688 360.917969 203.292969 361.527344 203.292969 L 362.871094 203.257812 C 362.871094 203.257812 362.871094 203.257812 362.902344 203.257812 C 363.511719 203.257812 363.992188 203.738281 364.023438 204.347656 C 364.023438 204.957031 363.542969 205.46875 362.933594 205.46875 Z M 367.324219 205.375 C 366.714844 205.375 366.234375 204.894531 366.203125 204.285156 C 366.203125 203.675781 366.683594 203.164062 367.292969 203.132812 L 368.636719 203.097656 C 369.277344 203.195312 369.757812 203.578125 369.789062 204.1875 C 369.789062 204.796875 369.308594 205.308594 368.703125 205.339844 L 367.324219 205.375 C 367.355469 205.375 367.355469 205.375 367.324219 205.375 Z M 373.121094 205.246094 C 372.515625 205.246094 372.035156 204.765625 372 204.15625 C 372 203.546875 372.480469 203.035156 373.089844 203.003906 L 374.4375 202.972656 C 375.109375 203.035156 375.558594 203.453125 375.589844 204.058594 C 375.589844 204.667969 375.109375 205.179688 374.5 205.214844 L 373.121094 205.246094 C 373.15625 205.246094 373.121094 205.246094 373.121094 205.246094 Z M 378.921875 205.117188 C 378.3125 205.117188 377.832031 204.636719 377.800781 204.027344 C 377.800781 203.417969 378.28125 202.90625 378.886719 202.90625 L 380.234375 202.875 C 380.234375 202.875 380.234375 202.875 380.265625 202.875 C 380.875 202.875 381.355469 203.355469 381.386719 203.964844 C 381.386719 204.574219 380.90625 205.085938 380.296875 205.085938 Z M 384.6875 204.988281 C 384.078125 204.988281 383.597656 204.507812 383.566406 203.898438 C 383.566406 203.292969 384.046875 202.777344 384.65625 202.777344 L 386 202.746094 C 386 202.746094 386 202.746094 386.03125 202.746094 C 386.640625 202.746094 387.121094 203.226562 387.152344 203.835938 C 387.152344 204.445312 386.671875 204.957031 386.0625 204.957031 L 384.6875 204.988281 C 384.71875 204.988281 384.6875 204.988281 384.6875 204.988281 Z M 390.453125 204.859375 C 389.84375 204.859375 389.363281 204.378906 389.332031 203.773438 C 389.332031 203.164062 389.8125 202.652344 390.421875 202.652344 L 391.765625 202.617188 C 391.765625 202.617188 391.765625 202.617188 391.796875 202.617188 C 392.40625 202.617188 392.886719 203.097656 392.917969 203.707031 C 392.917969 204.316406 392.4375 204.828125 391.832031 204.828125 L 390.453125 204.859375 C 390.484375 204.859375 390.484375 204.859375 390.453125 204.859375 Z M 396.25 204.734375 C 395.640625 204.734375 395.160156 204.253906 395.128906 203.644531 C 395.128906 203.035156 395.609375 202.523438 396.21875 202.523438 L 397.566406 202.492188 C 397.566406 202.492188 397.566406 202.492188 397.597656 202.492188 C 398.207031 202.492188 398.6875 202.972656 398.71875 203.578125 C 398.71875 204.1875 398.238281 204.699219 397.628906 204.699219 Z M 402.015625 204.605469 C 401.410156 204.605469 400.929688 204.125 400.894531 203.515625 C 400.894531 202.90625 401.375 202.394531 401.984375 202.394531 L 403.332031 202.363281 C 403.332031 202.363281 403.332031 202.363281 403.363281 202.363281 C 403.972656 202.363281 404.453125 202.84375 404.484375 203.453125 C 404.484375 204.058594 404.003906 204.574219 403.394531 204.574219 L 402.015625 204.605469 C 402.050781 204.605469 402.050781 204.605469 402.015625 204.605469 Z M 407.816406 204.476562 C 407.207031 204.476562 406.726562 203.996094 406.695312 203.386719 C 406.695312 202.777344 407.175781 202.265625 407.785156 202.234375 L 409.128906 202.203125 C 409.738281 202.234375 410.25 202.683594 410.28125 203.292969 C 410.28125 203.898438 409.800781 204.414062 409.191406 204.445312 Z M 413.582031 204.378906 C 412.972656 204.378906 412.492188 203.898438 412.460938 203.292969 C 412.460938 202.683594 412.941406 202.171875 413.550781 202.136719 L 414.894531 202.105469 C 415.535156 202.105469 416.015625 202.585938 416.046875 203.195312 C 416.046875 203.804688 415.566406 204.316406 414.960938 204.347656 L 413.582031 204.378906 C 413.613281 204.378906 413.613281 204.378906 413.582031 204.378906 Z M 419.378906 204.253906 C 418.769531 204.253906 418.289062 203.773438 418.257812 203.164062 C 418.257812 202.554688 418.738281 202.042969 419.347656 202.011719 L 420.691406 201.980469 C 421.367188 201.980469 421.8125 202.457031 421.847656 203.066406 C 421.847656 203.675781 421.367188 204.1875 420.757812 204.21875 Z M 425.144531 204.125 C 424.539062 204.125 424.058594 203.644531 424.023438 203.035156 C 424.023438 202.425781 424.503906 201.914062 425.113281 201.914062 L 426.460938 201.882812 C 426.460938 201.882812 426.460938 201.882812 426.492188 201.882812 C 427.101562 201.882812 427.582031 202.363281 427.613281 202.972656 C 427.613281 203.578125 427.132812 204.09375 426.523438 204.09375 L 425.144531 204.125 C 425.179688 204.125 425.179688 204.125 425.144531 204.125 Z M 430.945312 203.996094 C 430.335938 203.996094 429.855469 203.515625 429.824219 202.90625 C 429.824219 202.296875 430.304688 201.785156 430.914062 201.785156 L 432.257812 201.753906 C 432.257812 201.753906 432.257812 201.753906 432.289062 201.753906 C 432.898438 201.753906 433.378906 202.234375 433.410156 202.84375 C 433.410156 203.453125 432.929688 203.964844 432.320312 203.964844 Z M 489.855469 203.964844 C 489.664062 203.964844 489.4375 203.898438 489.277344 203.804688 C 488.957031 203.613281 488.636719 203.417969 488.285156 203.292969 C 487.707031 203.066406 487.453125 202.425781 487.675781 201.851562 C 487.902344 201.273438 488.574219 201.019531 489.117188 201.242188 C 489.597656 201.433594 490.046875 201.660156 490.496094 201.945312 C 491.007812 202.265625 491.167969 202.972656 490.847656 203.484375 C 490.59375 203.773438 490.238281 203.964844 489.855469 203.964844 Z M 436.710938 203.867188 C 436.101562 203.867188 435.621094 203.386719 435.589844 202.777344 C 435.589844 202.171875 436.070312 201.660156 436.679688 201.660156 L 438.023438 201.625 C 438.023438 201.625 438.023438 201.625 438.054688 201.625 C 438.664062 201.625 439.144531 202.105469 439.175781 202.714844 C 439.175781 203.324219 438.695312 203.835938 438.085938 203.835938 L 436.710938 203.867188 C 436.742188 203.867188 436.710938 203.867188 436.710938 203.867188 Z M 442.507812 203.738281 C 441.898438 203.738281 441.417969 203.257812 441.386719 202.652344 C 441.386719 202.042969 441.867188 201.53125 442.476562 201.53125 L 443.820312 201.5 C 443.820312 201.5 443.820312 201.5 443.855469 201.5 C 444.460938 201.5 444.941406 201.980469 444.976562 202.585938 C 444.976562 203.195312 444.496094 203.707031 443.886719 203.707031 Z M 448.273438 203.613281 C 447.667969 203.613281 447.1875 203.132812 447.152344 202.523438 C 447.152344 201.914062 447.632812 201.402344 448.242188 201.371094 L 449.589844 201.339844 C 450.292969 201.339844 450.710938 201.820312 450.742188 202.425781 C 450.742188 203.035156 450.261719 203.546875 449.652344 203.578125 L 448.273438 203.613281 C 448.308594 203.613281 448.273438 203.613281 448.273438 203.613281 Z M 454.074219 203.484375 C 453.464844 203.484375 452.984375 203.003906 452.953125 202.394531 C 452.953125 201.785156 453.433594 201.273438 454.039062 201.242188 L 455.386719 201.210938 C 456.125 201.179688 456.507812 201.691406 456.539062 202.296875 C 456.539062 202.90625 456.058594 203.417969 455.449219 203.453125 Z M 459.839844 203.355469 C 459.230469 203.355469 458.75 202.875 458.71875 202.265625 C 458.71875 201.660156 459.199219 201.144531 459.808594 201.113281 L 461.152344 201.082031 C 461.761719 201.179688 462.273438 201.5625 462.304688 202.171875 C 462.304688 202.777344 461.824219 203.292969 461.214844 203.324219 L 459.839844 203.355469 C 459.871094 203.355469 459.871094 203.355469 459.839844 203.355469 Z M 465.636719 203.226562 C 465.027344 203.226562 464.546875 202.746094 464.515625 202.136719 C 464.515625 201.53125 464.996094 201.019531 465.605469 201.019531 L 466.949219 200.984375 C 466.949219 200.984375 466.949219 200.984375 466.984375 200.984375 C 467.589844 200.984375 468.070312 201.464844 468.105469 202.074219 C 468.105469 202.683594 467.625 203.195312 467.015625 203.195312 Z M 471.402344 203.097656 C 470.792969 203.097656 470.3125 202.617188 470.28125 202.011719 C 470.28125 201.402344 470.761719 200.890625 471.371094 200.890625 L 472.71875 200.859375 C 472.71875 200.859375 472.71875 200.859375 472.75 200.859375 C 473.359375 200.859375 473.839844 201.339844 473.871094 201.945312 C 473.871094 202.554688 473.390625 203.066406 472.78125 203.066406 L 471.402344 203.097656 C 471.433594 203.097656 471.402344 203.097656 471.402344 203.097656 Z M 477.203125 202.972656 C 476.59375 202.972656 476.113281 202.492188 476.082031 201.882812 C 476.082031 201.273438 476.5625 200.761719 477.167969 200.761719 L 478.515625 200.730469 C 478.515625 200.730469 478.515625 200.730469 478.546875 200.730469 C 479.15625 200.730469 479.636719 201.210938 479.667969 201.820312 C 479.667969 202.425781 479.1875 202.9375 478.578125 202.9375 Z M 482.96875 202.84375 C 482.359375 202.84375 481.878906 202.363281 481.847656 201.753906 C 481.847656 201.144531 482.328125 200.632812 482.9375 200.632812 L 484.28125 200.601562 C 484.28125 200.601562 484.28125 200.601562 484.3125 200.601562 C 484.921875 200.601562 485.402344 201.082031 485.433594 201.691406 C 485.433594 202.296875 484.953125 202.8125 484.34375 202.8125 L 482.96875 202.84375 C 483 202.84375 482.96875 202.84375 482.96875 202.84375 Z M 482.96875 202.84375 " fill-opacity="1" fill-rule="nonzero"/><path fill="#334d5c" d="M 337.050781 239.292969 C 337.019531 239.292969 336.957031 239.292969 336.921875 239.292969 C 336.316406 239.195312 335.898438 238.652344 335.960938 238.042969 L 336.058594 237.371094 C 336.121094 236.761719 336.699219 236.3125 337.308594 236.410156 C 337.917969 236.503906 338.332031 237.050781 338.269531 237.660156 L 338.171875 238.332031 C 338.078125 238.875 337.597656 239.292969 337.050781 239.292969 Z M 337.050781 239.292969 " fill-opacity="1" fill-rule="nonzero"/><path fill="#334d5c" d="M 553.058594 349.441406 L 413.230469 323.367188 L 422.648438 240.125 L 568.722656 240.125 Z M 553.058594 349.441406 " fill-opacity="1" fill-rule="nonzero"/><path fill="#a6a6a6" d="M 566.769531 253.671875 L 421.460938 250.4375 L 422.648438 240.125 L 568.722656 240.125 Z M 566.769531 253.671875 " fill-opacity="1" fill-rule="nonzero"/><path fill="#ffffff" d="M 431.328125 248.707031 L 424.410156 248.582031 L 425.113281 242.367188 L 432.066406 242.398438 Z M 431.328125 248.707031 " fill-opacity="1" fill-rule="nonzero"/><path fill="#ffffff" d="M 533.324219 250.535156 L 444.941406 248.933594 L 445.742188 242.464844 L 534.382812 242.878906 Z M 533.324219 250.535156 " fill-opacity="1" fill-rule="nonzero"/><path fill="#000000" d="M 428.894531 247.109375 L 426.84375 245.441406 L 429.246094 243.839844 Z M 428.894531 247.109375 " fill-opacity="1" fill-rule="nonzero"/><path fill="#ffffff" d="M 434.308594 248.742188 L 441.226562 248.867188 L 441.996094 242.429688 L 435.042969 242.398438 Z M 434.308594 248.742188 " fill-opacity="1" fill-rule="nonzero"/><path fill="#000000" d="M 437.125 247.234375 L 439.5625 245.601562 L 437.511719 243.90625 Z M 437.125 247.234375 " fill-opacity="1" fill-rule="nonzero"/><path fill="#fb392e" d="M 545.371094 246.722656 C 545.113281 248.582031 543.578125 250.054688 541.941406 250.054688 C 540.308594 250.023438 539.15625 248.515625 539.414062 246.660156 C 539.667969 244.832031 541.207031 243.328125 542.871094 243.328125 C 544.539062 243.359375 545.625 244.867188 545.371094 246.722656 Z M 545.371094 246.722656 " fill-opacity="1" fill-rule="nonzero"/><path fill="#fecb15" d="M 554.691406 246.820312 C 554.4375 248.707031 552.867188 250.214844 551.234375 250.183594 C 549.597656 250.148438 548.476562 248.613281 548.734375 246.753906 C 548.992188 244.898438 550.527344 243.359375 552.195312 243.390625 C 553.828125 243.390625 554.949219 244.929688 554.691406 246.820312 Z M 554.691406 246.820312 " fill-opacity="1" fill-rule="nonzero"/><path fill="#26a659" d="M 563.949219 246.949219 C 563.664062 248.867188 562.125 250.40625 560.492188 250.375 C 558.824219 250.34375 557.734375 248.773438 557.992188 246.882812 C 558.25 244.992188 559.816406 243.457031 561.484375 243.457031 C 563.117188 243.457031 564.238281 245.027344 563.949219 246.949219 Z M 563.949219 246.949219 " fill-opacity="1" fill-rule="nonzero"/><path fill="#e0e0e0" d="M 430.269531 321.285156 L 428.703125 321.03125 L 436.324219 255.789062 L 437.960938 255.820312 Z M 430.269531 321.285156 " fill-opacity="1" fill-rule="nonzero"/><path fill="#e0e0e0" d="M 431.96875 260.144531 L 429.246094 260.046875 L 429.535156 257.550781 L 432.257812 257.644531 Z M 431.96875 260.144531 " fill-opacity="1" fill-rule="nonzero"/><path fill="#e0e0e0" d="M 431.328125 265.621094 L 428.636719 265.492188 L 428.925781 262.992188 L 431.617188 263.121094 Z M 431.328125 265.621094 " fill-opacity="1" fill-rule="nonzero"/><path fill="#e0e0e0" d="M 430.6875 271.128906 L 427.996094 270.9375 L 428.285156 268.4375 L 430.976562 268.597656 Z M 430.6875 271.128906 " fill-opacity="1" fill-rule="nonzero"/><path fill="#e0e0e0" d="M 430.046875 276.605469 L 427.355469 276.382812 L 427.644531 273.882812 L 430.335938 274.074219 Z M 430.046875 276.605469 " fill-opacity="1" fill-rule="nonzero"/><path fill="#e0e0e0" d="M 429.4375 282.082031 L 426.746094 281.828125 L 427.035156 279.359375 L 429.726562 279.585938 Z M 429.4375 282.082031 " fill-opacity="1" fill-rule="nonzero"/><path fill="#e0e0e0" d="M 428.796875 287.558594 L 426.105469 287.273438 L 426.394531 284.804688 L 429.085938 285.0625 Z M 428.796875 287.558594 " fill-opacity="1" fill-rule="nonzero"/><path fill="#e0e0e0" d="M 428.15625 293.035156 L 425.5 292.71875 L 425.785156 290.25 L 428.445312 290.539062 Z M 428.15625 293.035156 " fill-opacity="1" fill-rule="nonzero"/><path fill="#e0e0e0" d="M 427.515625 298.515625 L 424.859375 298.160156 L 425.144531 295.695312 L 427.804688 296.015625 Z M 427.515625 298.515625 " fill-opacity="1" fill-rule="nonzero"/><path fill="#e0e0e0" d="M 426.875 303.992188 L 424.25 303.640625 L 424.503906 301.140625 L 427.164062 301.492188 Z M 426.875 303.992188 " fill-opacity="1" fill-rule="nonzero"/><path fill="#e0e0e0" d="M 426.234375 309.46875 L 423.609375 309.082031 L 423.898438 306.585938 L 426.523438 306.96875 Z M 426.234375 309.46875 " fill-opacity="1" fill-rule="nonzero"/><path fill="#e0e0e0" d="M 425.625 314.945312 L 422.96875 314.527344 L 423.257812 312.03125 L 425.914062 312.445312 Z M 425.625 314.945312 " fill-opacity="1" fill-rule="nonzero"/><path fill="#ffffff" d="M 444.429688 257.421875 L 442.21875 259.34375 C 442.058594 259.46875 442.027344 259.695312 442.15625 259.824219 L 443.820312 261.746094 C 443.949219 261.90625 444.175781 261.90625 444.367188 261.777344 C 444.460938 261.710938 444.496094 261.617188 444.527344 261.519531 C 444.527344 261.425781 444.496094 261.328125 444.429688 261.265625 C 444.429688 261.265625 443.308594 259.949219 442.988281 259.566406 C 443.40625 259.214844 444.910156 257.902344 444.910156 257.902344 C 444.976562 257.835938 445.039062 257.742188 445.039062 257.644531 C 445.039062 257.550781 445.007812 257.453125 444.941406 257.355469 C 444.816406 257.261719 444.589844 257.261719 444.429688 257.421875 Z M 444.429688 257.421875 " fill-opacity="1" fill-rule="nonzero"/><path fill="#ffffff" d="M 453.753906 257.710938 C 453.65625 257.773438 453.625 257.871094 453.59375 257.964844 C 453.59375 258.0625 453.59375 258.15625 453.65625 258.222656 C 453.65625 258.222656 454.839844 259.664062 455.160156 260.046875 C 454.746094 260.398438 453.304688 261.617188 453.304688 261.617188 C 453.238281 261.679688 453.175781 261.777344 453.175781 261.871094 C 453.175781 261.96875 453.175781 262.066406 453.273438 262.128906 C 453.398438 262.257812 453.65625 262.289062 453.816406 262.128906 L 455.964844 260.304688 C 456.125 260.175781 456.15625 259.949219 456.027344 259.789062 L 454.296875 257.675781 C 454.167969 257.613281 453.914062 257.582031 453.753906 257.710938 Z M 453.753906 257.710938 " fill-opacity="1" fill-rule="nonzero"/><path fill="#ffffff" d="M 450.644531 257.804688 L 446.542969 261.230469 C 446.382812 261.359375 446.351562 261.585938 446.480469 261.746094 C 446.609375 261.90625 446.863281 261.90625 447.023438 261.746094 L 451.125 258.351562 C 451.285156 258.222656 451.316406 257.964844 451.191406 257.835938 C 451.0625 257.675781 450.804688 257.675781 450.644531 257.804688 Z M 450.644531 257.804688 " fill-opacity="1" fill-rule="nonzero"/><path fill="#ffffff" d="M 437.191406 318.210938 L 435.042969 319.878906 C 434.882812 320.003906 434.882812 320.230469 434.980469 320.390625 L 436.613281 322.566406 C 436.742188 322.726562 436.964844 322.792969 437.125 322.664062 C 437.222656 322.601562 437.253906 322.503906 437.285156 322.40625 C 437.285156 322.3125 437.285156 322.214844 437.222656 322.152344 C 437.222656 322.152344 436.132812 320.679688 435.8125 320.261719 C 436.230469 319.941406 437.703125 318.820312 437.703125 318.820312 C 437.765625 318.757812 437.832031 318.660156 437.832031 318.597656 C 437.832031 318.5 437.800781 318.402344 437.734375 318.308594 C 437.574219 318.117188 437.351562 318.082031 437.191406 318.210938 Z M 437.191406 318.210938 " fill-opacity="1" fill-rule="nonzero"/><path fill="#ffffff" d="M 446.222656 319.683594 C 446.128906 319.75 446.097656 319.84375 446.0625 319.941406 C 446.0625 320.039062 446.0625 320.132812 446.128906 320.199219 C 446.128906 320.199219 447.28125 321.800781 447.601562 322.246094 C 447.1875 322.566406 445.808594 323.625 445.808594 323.625 C 445.742188 323.6875 445.679688 323.753906 445.679688 323.847656 C 445.679688 323.945312 445.679688 324.042969 445.777344 324.136719 C 445.902344 324.296875 446.128906 324.328125 446.289062 324.203125 L 448.371094 322.632812 C 448.53125 322.503906 448.5625 322.28125 448.433594 322.121094 L 446.769531 319.78125 C 446.640625 319.621094 446.382812 319.589844 446.222656 319.683594 Z M 446.222656 319.683594 " fill-opacity="1" fill-rule="nonzero"/><path fill="#ffffff" d="M 443.214844 319.398438 L 439.242188 322.34375 C 439.082031 322.472656 439.050781 322.695312 439.175781 322.855469 C 439.304688 323.015625 439.53125 323.046875 439.691406 322.953125 L 443.660156 320.003906 C 443.820312 319.878906 443.855469 319.652344 443.726562 319.492188 C 443.628906 319.332031 443.40625 319.300781 443.214844 319.398438 Z M 443.214844 319.398438 " fill-opacity="1" fill-rule="nonzero"/><path fill="#e29616" d="M 450.902344 266.003906 L 438.570312 265.363281 L 438.855469 263.058594 L 451.191406 263.667969 Z M 450.902344 266.003906 " fill-opacity="1" fill-rule="nonzero"/><path fill="#f19b0f" d="M 448.628906 297.359375 L 435.011719 295.757812 L 435.269531 293.453125 L 448.914062 294.992188 Z M 448.628906 297.359375 " fill-opacity="1" fill-rule="nonzero"/><path fill="#f19b0f" d="M 441.804688 317.570312 L 432.609375 316.066406 L 432.867188 313.792969 L 442.058594 315.234375 Z M 441.804688 317.570312 " fill-opacity="1" fill-rule="nonzero"/><path fill="#17bb99" d="M 460.640625 271.867188 L 441.003906 270.617188 L 441.292969 268.3125 L 460.960938 269.464844 Z M 460.640625 271.867188 " fill-opacity="1" fill-rule="nonzero"/><path fill="#fbdd82" d="M 455.066406 303.574219 L 437.382812 301.300781 L 437.640625 298.996094 L 455.386719 301.203125 Z M 455.066406 303.574219 " fill-opacity="1" fill-rule="nonzero"/><path fill="#89c0c8" d="M 454.105469 308.636719 L 436.804688 306.199219 L 437.0625 303.925781 L 454.425781 306.265625 Z M 454.105469 308.636719 " fill-opacity="1" fill-rule="nonzero"/><path fill="#17bb99" d="M 445.457031 312.734375 L 436.199219 311.324219 L 436.453125 309.019531 L 445.742188 310.398438 Z M 445.457031 312.734375 " fill-opacity="1" fill-rule="nonzero"/><path fill="#fbdd82" d="M 487.066406 319.011719 L 447.667969 313.054688 L 447.921875 310.71875 L 487.386719 316.480469 Z M 487.066406 319.011719 " fill-opacity="1" fill-rule="nonzero"/><path fill="#fbdd82" d="M 484.890625 312.925781 L 456.15625 308.921875 L 456.445312 306.519531 L 485.210938 310.398438 Z M 484.890625 312.925781 " fill-opacity="1" fill-rule="nonzero"/><path fill="#e29616" d="M 496.359375 314.5625 L 487.101562 313.246094 L 487.421875 310.71875 L 496.710938 311.964844 Z M 496.359375 314.5625 " fill-opacity="1" fill-rule="nonzero"/><path fill="#89c0c8" d="M 519.773438 311.933594 L 501.257812 309.5625 L 501.613281 306.9375 L 520.128906 309.242188 Z M 519.773438 311.933594 " fill-opacity="1" fill-rule="nonzero"/><path fill="#17bb99" d="M 498.953125 309.242188 L 456.957031 303.832031 L 457.246094 301.429688 L 499.273438 306.648438 Z M 498.953125 309.242188 " fill-opacity="1" fill-rule="nonzero"/><path fill="#fbdd82" d="M 473.933594 272.699219 L 462.691406 271.992188 L 462.976562 269.59375 L 474.253906 270.265625 Z M 473.933594 272.699219 " fill-opacity="1" fill-rule="nonzero"/><path fill="#fbdd82" d="M 452.695312 282.082031 L 439.785156 280.960938 L 440.074219 278.6875 L 452.984375 279.714844 Z M 452.695312 282.082031 " fill-opacity="1" fill-rule="nonzero"/><path fill="#17bb99" d="M 475.792969 284.035156 L 454.808594 282.273438 L 455.097656 279.875 L 476.082031 281.570312 Z M 475.792969 284.035156 " fill-opacity="1" fill-rule="nonzero"/><path fill="#89c0c8" d="M 496.164062 274.109375 L 475.984375 272.828125 L 476.304688 270.359375 L 496.484375 271.546875 Z M 496.164062 274.109375 " fill-opacity="1" fill-rule="nonzero"/><path fill="#89c0c8" d="M 462.722656 277.535156 L 440.394531 275.871094 L 440.683594 273.5625 L 463.011719 275.132812 Z M 462.722656 277.535156 " fill-opacity="1" fill-rule="nonzero"/><path fill="#e29616" d="M 486.84375 279.328125 L 465.027344 277.695312 L 465.316406 275.292969 L 487.164062 276.796875 Z M 486.84375 279.328125 " fill-opacity="1" fill-rule="nonzero"/><path fill="#17bb99" d="M 504.269531 280.609375 L 489.023438 279.488281 L 489.34375 276.957031 L 504.621094 278.015625 Z M 504.269531 280.609375 " fill-opacity="1" fill-rule="nonzero"/><path fill="#89c0c8" d="M 465.507812 288.617188 L 439.175781 286.085938 L 439.464844 283.78125 L 465.796875 286.183594 Z M 465.507812 288.617188 " fill-opacity="1" fill-rule="nonzero"/><path fill="#fbdd82" d="M 481.558594 290.15625 L 467.527344 288.808594 L 467.816406 286.375 L 481.878906 287.65625 Z M 481.558594 290.15625 " fill-opacity="1" fill-rule="nonzero"/><path fill="#17bb99" d="M 464.867188 293.742188 L 438.601562 290.957031 L 438.890625 288.648438 L 465.15625 291.308594 Z M 464.867188 293.742188 " fill-opacity="1" fill-rule="nonzero"/><path fill="#89c0c8" d="M 491.199219 296.558594 L 466.886719 293.964844 L 467.175781 291.53125 L 491.554688 293.996094 Z M 491.199219 296.558594 " fill-opacity="1" fill-rule="nonzero"/><path fill="#17bb99" d="M 511.125 293.003906 L 483.898438 290.378906 L 484.21875 287.878906 L 511.476562 290.378906 Z M 511.125 293.003906 " fill-opacity="1" fill-rule="nonzero"/><path fill="#17bb99" d="M 459.613281 266.453125 L 453.273438 266.132812 L 453.558594 263.761719 L 459.902344 264.082031 Z M 459.613281 266.453125 " fill-opacity="1" fill-rule="nonzero"/><path fill="#334d5c" d="M 502.414062 241.695312 C 502.347656 241.695312 502.285156 241.695312 502.21875 241.664062 C 501.613281 241.566406 501.226562 240.957031 501.324219 240.382812 L 501.453125 239.742188 C 501.578125 239.132812 502.125 238.714844 502.765625 238.84375 C 503.375 238.941406 503.757812 239.546875 503.660156 240.125 L 503.535156 240.765625 C 503.40625 241.308594 502.925781 241.695312 502.414062 241.695312 Z M 502.414062 241.695312 " fill-opacity="1" fill-rule="nonzero"/><path fill="#334d5c" d="M 503.308594 236.761719 C 503.246094 236.761719 503.179688 236.761719 503.117188 236.730469 C 502.507812 236.632812 502.125 236.023438 502.21875 235.449219 L 502.445312 234.167969 C 502.574219 233.558594 503.148438 233.175781 503.726562 233.269531 C 504.335938 233.367188 504.71875 233.976562 504.621094 234.550781 L 504.398438 235.832031 C 504.300781 236.410156 503.855469 236.761719 503.308594 236.761719 Z M 504.335938 231.222656 C 504.269531 231.222656 504.207031 231.222656 504.140625 231.1875 C 503.535156 231.09375 503.148438 230.484375 503.246094 229.90625 L 503.46875 228.625 C 503.597656 228.019531 504.175781 227.632812 504.75 227.730469 C 505.359375 227.824219 505.746094 228.433594 505.648438 229.011719 L 505.425781 230.292969 C 505.328125 230.867188 504.847656 231.222656 504.335938 231.222656 Z M 505.359375 225.679688 C 505.296875 225.679688 505.230469 225.679688 505.167969 225.648438 C 504.558594 225.550781 504.175781 224.941406 504.269531 224.367188 L 504.496094 223.085938 C 504.621094 222.476562 505.199219 222.09375 505.777344 222.1875 C 506.386719 222.285156 506.769531 222.894531 506.671875 223.46875 L 506.449219 224.75 C 506.351562 225.296875 505.871094 225.679688 505.359375 225.679688 Z M 506.386719 220.140625 C 506.320312 220.140625 506.257812 220.140625 506.191406 220.105469 C 505.585938 220.011719 505.199219 219.402344 505.296875 218.824219 L 505.519531 217.542969 C 505.648438 216.9375 506.226562 216.519531 506.800781 216.648438 C 507.410156 216.742188 507.792969 217.351562 507.699219 217.929688 L 507.472656 219.210938 C 507.378906 219.753906 506.898438 220.140625 506.386719 220.140625 Z M 507.378906 214.597656 C 507.3125 214.597656 507.25 214.597656 507.1875 214.566406 C 506.578125 214.46875 506.191406 213.859375 506.289062 213.285156 L 506.511719 212.003906 C 506.640625 211.394531 507.21875 211.011719 507.792969 211.105469 C 508.402344 211.203125 508.789062 211.8125 508.691406 212.386719 L 508.46875 213.667969 C 508.371094 214.214844 507.921875 214.597656 507.378906 214.597656 Z M 508.402344 209.058594 C 508.339844 209.058594 508.273438 209.058594 508.210938 209.023438 C 507.601562 208.929688 507.21875 208.320312 507.3125 207.742188 L 507.539062 206.460938 C 507.632812 205.855469 508.242188 205.46875 508.820312 205.566406 C 509.429688 205.660156 509.8125 206.269531 509.714844 206.847656 L 509.492188 208.128906 C 509.394531 208.671875 508.949219 209.058594 508.402344 209.058594 Z M 509.429688 203.515625 C 509.363281 203.515625 509.300781 203.515625 509.234375 203.484375 C 508.628906 203.386719 508.242188 202.777344 508.339844 202.203125 L 508.5625 200.921875 C 508.691406 200.3125 509.269531 199.929688 509.84375 200.023438 C 510.453125 200.121094 510.835938 200.730469 510.742188 201.304688 L 510.515625 202.585938 C 510.421875 203.132812 509.941406 203.515625 509.429688 203.515625 Z M 510.453125 197.976562 C 510.390625 197.976562 510.324219 197.976562 510.261719 197.941406 C 509.652344 197.847656 509.269531 197.238281 509.363281 196.660156 L 509.589844 195.378906 C 509.714844 194.773438 510.292969 194.386719 510.871094 194.484375 C 511.476562 194.578125 511.863281 195.1875 511.765625 195.765625 L 511.542969 197.046875 C 511.445312 197.589844 510.964844 197.976562 510.453125 197.976562 Z M 511.894531 192.53125 C 511.734375 192.53125 511.542969 192.496094 511.382812 192.402344 C 510.835938 192.113281 510.613281 191.472656 510.902344 190.894531 C 511.125 190.449219 511.382812 190.03125 511.636719 189.648438 C 511.992188 189.136719 512.664062 189.007812 513.175781 189.359375 C 513.6875 189.710938 513.816406 190.382812 513.464844 190.894531 C 513.238281 191.214844 513.046875 191.535156 512.886719 191.890625 C 512.695312 192.304688 512.277344 192.53125 511.894531 192.53125 Z M 515.609375 188.367188 C 515.257812 188.367188 514.90625 188.207031 514.683594 187.855469 C 514.328125 187.339844 514.488281 186.636719 515.003906 186.316406 C 515.386719 186.058594 515.804688 185.804688 516.25 185.613281 C 516.796875 185.355469 517.46875 185.546875 517.726562 186.125 C 518.011719 186.667969 517.789062 187.339844 517.210938 187.628906 C 516.859375 187.789062 516.539062 188.015625 516.21875 188.207031 C 516.027344 188.300781 515.804688 188.367188 515.609375 188.367188 Z M 520.863281 186.605469 C 520.289062 186.605469 519.808594 186.15625 519.742188 185.578125 C 519.710938 184.972656 520.160156 184.425781 520.769531 184.394531 L 522.082031 184.296875 C 522.660156 184.234375 523.234375 184.714844 523.265625 185.324219 C 523.300781 185.933594 522.851562 186.476562 522.242188 186.507812 L 520.929688 186.605469 C 520.929688 186.605469 520.894531 186.605469 520.863281 186.605469 Z M 526.503906 186.1875 C 525.925781 186.1875 525.445312 185.738281 525.382812 185.164062 C 525.347656 184.554688 525.796875 184.011719 526.40625 183.976562 L 527.71875 183.882812 C 528.425781 183.816406 528.871094 184.296875 528.90625 184.90625 C 528.9375 185.515625 528.488281 186.058594 527.878906 186.09375 L 526.566406 186.1875 C 526.566406 186.1875 526.535156 186.1875 526.503906 186.1875 Z M 526.503906 186.1875 " fill-opacity="1" fill-rule="nonzero"/><path fill="#334d5c" d="M 532.140625 185.773438 C 531.5625 185.773438 531.082031 185.324219 531.019531 184.746094 C 530.988281 184.136719 531.4375 183.59375 532.042969 183.5625 L 532.71875 183.496094 C 533.324219 183.402344 533.871094 183.914062 533.902344 184.523438 C 533.933594 185.132812 533.484375 185.675781 532.878906 185.707031 L 532.203125 185.738281 C 532.203125 185.773438 532.171875 185.773438 532.140625 185.773438 Z M 532.140625 185.773438 " fill-opacity="1" fill-rule="nonzero"/><path fill="#f15281" d="M 499.335938 165.113281 C 497.449219 175.492188 487.453125 183.945312 477.042969 183.945312 C 466.628906 183.945312 459.742188 175.523438 461.632812 165.113281 C 463.554688 154.703125 473.519531 146.28125 483.929688 146.28125 C 494.339844 146.246094 501.226562 154.703125 499.335938 165.113281 Z M 499.335938 165.113281 " fill-opacity="1" fill-rule="nonzero"/><path fill="#ffffff" d="M 486.011719 159.25 C 486.011719 159.25 480.597656 164.824219 478.195312 167.292969 C 477.234375 166.042969 476.144531 164.664062 476.144531 164.664062 C 475.503906 163.832031 474.191406 163.800781 473.199219 164.601562 C 472.203125 165.402344 471.949219 166.714844 472.589844 167.546875 L 475.984375 171.902344 C 476.335938 172.351562 476.882812 172.574219 477.488281 172.542969 C 478.097656 172.511719 478.707031 172.222656 479.1875 171.742188 L 488.863281 161.8125 C 489.757812 160.917969 489.824219 159.605469 489.054688 158.867188 C 488.253906 158.195312 486.90625 158.324219 486.011719 159.25 Z M 486.011719 159.25 " fill-opacity="1" fill-rule="nonzero"/><path fill="#4581c5" d="M 295.246094 178.820312 L 363.671875 175.875 C 363.671875 175.875 372.996094 161.75 365.660156 153.871094 C 358.097656 146.535156 348.390625 153.390625 348.390625 153.390625 C 348.390625 153.390625 345.445312 135.679688 327.539062 140.417969 C 309.917969 145.09375 310.65625 159.21875 310.6875 162.710938 C 310.6875 162.710938 300.597656 161.332031 296.464844 167.386719 C 292.492188 173.214844 295.246094 178.820312 295.246094 178.820312 Z M 295.246094 178.820312 " fill-opacity="1" fill-rule="nonzero"/><g mask="url(#84e2c1d9cf)"><g transform="matrix(1, 0, 0, 1, 378, 40)"><g clip-path="url(#448bcf16f8)"><path fill="#b7c6ce" d="M 85.296875 43.054688 C 85.296875 65.890625 66.78125 84.402344 43.941406 84.402344 C 21.101562 84.402344 2.585938 65.890625 2.585938 43.054688 C 2.585938 20.21875 21.101562 1.707031 43.941406 1.707031 C 66.78125 1.707031 85.296875 20.21875 85.296875 43.054688 Z M 85.296875 43.054688 " fill-opacity="1" fill-rule="nonzero"/><path fill="#aab5ba" d="M 76.617188 43.054688 C 76.617188 61.085938 61.976562 75.722656 43.941406 75.722656 C 25.90625 75.722656 11.269531 61.085938 11.269531 43.054688 C 11.269531 25.023438 25.90625 10.386719 43.941406 10.386719 C 61.976562 10.386719 76.617188 25.023438 76.617188 43.054688 Z M 76.617188 43.054688 " fill-opacity="1" fill-rule="nonzero"/><path fill="#fafafa" d="M 73.09375 43.054688 C 73.09375 59.164062 60.054688 72.199219 43.941406 72.199219 C 27.828125 72.199219 14.792969 59.164062 14.792969 43.054688 C 14.792969 26.945312 27.828125 13.910156 43.941406 13.910156 C 60.054688 13.910156 73.09375 26.945312 73.09375 43.054688 Z M 73.09375 43.054688 " fill-opacity="1" fill-rule="nonzero"/><g mask="url(#b3ffea653c)"><g transform="matrix(1, 0, 0, 1, 16, 3)"><g clip-path="url(#31b521af32)"><path fill="#d1bdd1" d="M 16.507812 5.207031 C 16.792969 6.648438 15.832031 8.027344 14.457031 8.472656 C 11.605469 9.433594 8.945312 10.972656 6.703125 12.957031 C 5.613281 13.917969 3.949219 14.046875 2.859375 13.085938 C 1.769531 12.15625 1.867188 10.234375 3.246094 9.019531 C 6.03125 6.585938 9.265625 4.726562 12.789062 3.542969 C 14.519531 2.902344 16.25 3.796875 16.507812 5.207031 Z M 16.507812 5.207031 " fill-opacity="0.298" fill-rule="nonzero"/></g></g></g><path fill="#b7c6ce" d="M 64.957031 31.171875 L 43.269531 41.996094 C 42.597656 42.316406 42.339844 43.117188 42.660156 43.792969 C 42.980469 44.433594 43.78125 44.71875 44.457031 44.398438 L 66.140625 33.574219 C 66.816406 33.253906 67.070312 32.453125 66.75 31.8125 C 66.429688 31.109375 65.628906 30.820312 64.957031 31.171875 Z M 64.957031 31.171875 " fill-opacity="1" fill-rule="nonzero"/><path fill="#b7c6ce" d="M 42.691406 27.039062 L 42.597656 42.222656 C 42.597656 42.957031 43.171875 43.566406 43.910156 43.566406 C 44.648438 43.566406 45.257812 42.992188 45.257812 42.253906 L 45.351562 27.070312 C 45.351562 26.335938 44.777344 25.726562 44.039062 25.726562 C 43.300781 25.726562 42.691406 26.304688 42.691406 27.039062 Z M 42.691406 27.039062 " fill-opacity="1" fill-rule="nonzero"/><path fill="#aab5ba" d="M 41.925781 38.988281 C 39.683594 40.109375 38.753906 42.832031 39.875 45.074219 C 40.996094 47.316406 43.71875 48.242188 45.960938 47.121094 C 48.203125 46 49.132812 43.277344 48.011719 41.035156 C 46.921875 38.792969 44.167969 37.867188 41.925781 38.988281 Z M 41.925781 38.988281 " fill-opacity="1" fill-rule="nonzero"/><path fill="#b7c6ce" d="M 42.851562 40.875 C 44.070312 40.269531 45.511719 40.78125 46.121094 41.964844 C 46.730469 43.183594 46.21875 44.625 45 45.234375 C 43.78125 45.839844 42.339844 45.328125 41.730469 44.144531 C 41.15625 42.925781 41.667969 41.453125 42.851562 40.875 Z M 42.851562 40.875 " fill-opacity="1" fill-rule="nonzero"/></g></g></g><g mask="url(#8d2bbac802)"><g transform="matrix(1, 0, 0, 1, 183, 24)"><g clip-path="url(#92a5a01df6)"><path fill="#b7c6ce" d="M 124.964844 86.214844 C 124.964844 86.085938 124.996094 85.960938 124.996094 85.832031 C 124.996094 56.394531 97.382812 32.535156 63.300781 32.535156 C 29.214844 32.535156 1.601562 56.394531 1.601562 85.832031 C 1.601562 85.960938 1.632812 86.085938 1.632812 86.214844 Z M 124.964844 86.214844 " fill-opacity="1" fill-rule="nonzero"/><g clip-path="url(#b6cc55fbc8)"><path fill="#b7c6ce" d="M 48.949219 88.265625 C 48.949219 88.296875 48.949219 88.359375 48.949219 88.359375 C 48.949219 96.304688 55.386719 102.742188 63.300781 102.742188 C 71.242188 102.742188 77.683594 96.304688 77.683594 88.359375 C 77.683594 88.328125 77.683594 88.296875 77.683594 88.265625 Z M 48.949219 88.265625 " fill-opacity="1" fill-rule="nonzero"/></g><g clip-path="url(#b5e45159f6)"><path fill="#b7c6ce" d="M 64.453125 0.984375 L 64.453125 37.179688 L 62.144531 37.179688 L 62.144531 1.753906 C 62.5625 1.625 62.976562 1.464844 63.394531 1.339844 C 63.746094 1.210938 64.066406 1.082031 64.453125 0.984375 Z M 64.453125 0.984375 " fill-opacity="1" fill-rule="nonzero"/></g></g></g></g></svg>