<svg xmlns="http://www.w3.org/2000/svg" xmlns:xlink="http://www.w3.org/1999/xlink" width="100" zoomAndPan="magnify" viewBox="0 0 75 74.999997" height="100" preserveAspectRatio="xMidYMid meet" version="1.0"><rect x="-7.5" width="90" fill="#ffffff" y="-7.5" height="89.999996" fill-opacity="1"/><rect x="-7.5" width="90" fill="#ffffff" y="-7.5" height="89.999996" fill-opacity="1"/><rect x="-7.5" width="90" fill="#ffffff" y="-7.5" height="89.999996" fill-opacity="1"/><path fill="#000000" d="M 37.5 0 C 16.789062 0 0 16.789062 0 37.5 C 0 58.210938 16.789062 75 37.5 75 C 58.210938 75 75 58.210938 75 37.5 C 75 16.789062 58.210938 0 37.5 0 Z M 37.5 3.183594 C 56.421875 3.183594 71.816406 18.578125 71.816406 37.5 C 71.816406 56.421875 56.421875 71.816406 37.5 71.816406 C 18.578125 71.816406 3.183594 56.421875 3.183594 37.5 C 3.183594 18.578125 18.578125 3.183594 37.5 3.183594 " fill-opacity="1" fill-rule="nonzero"/><path fill="#000000" d="M 44.820312 37.5 L 59.457031 52.136719 L 52.136719 59.457031 L 37.5 44.820312 L 22.863281 59.457031 L 15.542969 52.136719 L 30.179688 37.5 L 15.542969 22.863281 L 22.863281 15.542969 L 37.5 30.179688 L 52.136719 15.542969 L 59.457031 22.863281 L 44.820312 37.5 " fill-opacity="1" fill-rule="nonzero"/></svg>