<svg xmlns="http://www.w3.org/2000/svg" xmlns:xlink="http://www.w3.org/1999/xlink" width="100" zoomAndPan="magnify" viewBox="0 0 75 74.999997" height="100" preserveAspectRatio="xMidYMid meet" version="1.0"><defs><clipPath id="c1d7bc3a5c"><path d="M 0.449219 0.449219 L 74.699219 0.449219 L 74.699219 74.699219 L 0.449219 74.699219 Z M 0.449219 0.449219 " clip-rule="nonzero"/></clipPath></defs><g clip-path="url(#c1d7bc3a5c)"><path fill="#000000" d="M 37.574219 74.699219 C 17.070312 74.699219 0.449219 58.078125 0.449219 37.574219 C 0.449219 17.070312 17.070312 0.449219 37.574219 0.449219 C 58.078125 0.449219 74.699219 17.070312 74.699219 37.574219 C 74.699219 58.078125 58.078125 74.699219 37.574219 74.699219 Z M 37.574219 74.699219 " fill-opacity="1" fill-rule="nonzero"/><path fill="#000000" d="M 37.574219 0.449219 C 17.070312 0.449219 0.449219 17.070312 0.449219 37.574219 C 0.449219 58.078125 17.070312 74.699219 37.574219 74.699219 C 58.078125 74.699219 74.699219 58.078125 74.699219 37.574219 C 74.699219 17.070312 58.078125 0.449219 37.574219 0.449219 Z M 37.574219 70.414062 C 19.4375 70.414062 4.738281 55.710938 4.738281 37.574219 C 4.738281 19.4375 19.4375 4.738281 37.574219 4.738281 C 55.710938 4.738281 70.414062 19.4375 70.414062 37.574219 C 70.414062 55.710938 55.710938 70.414062 37.574219 70.414062 Z M 37.574219 70.414062 " fill-opacity="1" fill-rule="nonzero"/></g><path fill="#ffffff" d="M 25.808594 29.617188 C 26.273438 29.199219 26.738281 28.773438 27.1875 28.359375 L 27.324219 28.234375 C 27.902344 27.707031 28.148438 26.976562 27.992188 26.238281 C 27.832031 25.457031 27.230469 24.785156 26.460938 24.53125 C 25.71875 24.285156 24.925781 24.464844 24.34375 25.003906 C 22.585938 26.601562 20.832031 28.199219 19.074219 29.796875 C 17.316406 31.390625 15.5625 32.984375 13.816406 34.574219 C 13.355469 34.992188 12.886719 35.417969 12.4375 35.832031 L 12.300781 35.957031 C 11.859375 36.359375 11.609375 36.953125 11.617188 37.589844 C 11.621094 38.21875 11.871094 38.800781 12.304688 39.191406 C 14.058594 40.789062 15.816406 42.386719 17.574219 43.984375 C 19.328125 45.578125 21.082031 47.167969 22.839844 48.769531 C 23.296875 49.179688 23.757812 49.605469 24.207031 50.015625 L 24.339844 50.140625 C 24.765625 50.523438 25.285156 50.714844 25.804688 50.714844 C 26.414062 50.714844 27.023438 50.453125 27.476562 49.9375 C 28.277344 49.023438 28.214844 47.71875 27.328125 46.910156 L 27.324219 46.90625 C 24.054688 43.9375 20.578125 40.777344 17.058594 37.570312 C 18.210938 36.523438 19.363281 35.476562 20.515625 34.429688 C 22.285156 32.824219 24.050781 31.21875 25.808594 29.617188 Z M 25.808594 29.617188 " fill-opacity="1" fill-rule="nonzero"/><path fill="#ffffff" d="M 62.84375 35.953125 C 61.089844 34.351562 59.328125 32.753906 57.570312 31.152344 C 55.816406 29.5625 54.066406 27.972656 52.3125 26.371094 C 51.851562 25.960938 51.390625 25.535156 50.941406 25.125 L 50.804688 25 C 50.207031 24.460938 49.40625 24.289062 48.660156 24.546875 C 47.894531 24.808594 47.300781 25.484375 47.144531 26.265625 C 47 27 47.25 27.71875 47.828125 28.238281 C 49.578125 29.832031 51.328125 31.421875 53.082031 33.015625 C 54.75 34.53125 56.417969 36.046875 58.089844 37.570312 C 56.941406 38.617188 55.792969 39.660156 54.644531 40.703125 C 52.875 42.3125 51.101562 43.921875 49.339844 45.527344 C 48.878906 45.945312 48.410156 46.371094 47.960938 46.785156 L 47.828125 46.90625 C 46.941406 47.707031 46.871094 49.003906 47.664062 49.917969 C 48.121094 50.441406 48.734375 50.710938 49.351562 50.710938 C 49.867188 50.710938 50.382812 50.523438 50.808594 50.140625 C 52.5625 48.539062 54.320312 46.945312 56.078125 45.347656 C 57.832031 43.753906 59.585938 42.160156 61.332031 40.570312 C 61.792969 40.152344 62.257812 39.726562 62.707031 39.316406 L 62.851562 39.1875 C 63.289062 38.785156 63.539062 38.1875 63.535156 37.550781 C 63.53125 36.921875 63.277344 36.339844 62.84375 35.953125 Z M 62.84375 35.953125 " fill-opacity="1" fill-rule="nonzero"/><path fill="#ffffff" d="M 44.066406 19.21875 C 42.984375 18.925781 41.878906 19.527344 41.4375 20.652344 L 37.296875 31.652344 C 36.207031 34.554688 35.113281 37.457031 34.019531 40.363281 C 32.929688 43.261719 31.835938 46.160156 30.75 49.054688 L 30.417969 49.929688 C 30.03125 50.960938 29.625 52.03125 29.238281 53.082031 C 29.035156 53.621094 29.078125 54.21875 29.347656 54.761719 C 29.636719 55.335938 30.15625 55.769531 30.734375 55.925781 C 30.925781 55.980469 31.117188 56.003906 31.304688 56.003906 C 32.203125 56.003906 33.023438 55.421875 33.371094 54.476562 L 37.507812 43.496094 C 38.597656 40.597656 39.6875 37.695312 40.78125 34.792969 C 41.871094 31.894531 42.964844 28.992188 44.054688 26.089844 L 44.382812 25.21875 C 44.773438 24.183594 45.175781 23.117188 45.566406 22.0625 C 45.765625 21.523438 45.726562 20.929688 45.453125 20.382812 C 45.164062 19.8125 44.648438 19.375 44.066406 19.21875 Z M 44.066406 19.21875 " fill-opacity="1" fill-rule="nonzero"/></svg>