<svg xmlns="http://www.w3.org/2000/svg" xmlns:xlink="http://www.w3.org/1999/xlink" width="100" zoomAndPan="magnify" viewBox="0 0 75 74.999997" height="100" preserveAspectRatio="xMidYMid meet" version="1.0"><defs><clipPath id="da53ce7d42"><path d="M 0 0 L 74.996094 0 L 74.996094 74.996094 L 0 74.996094 Z M 0 0 " clip-rule="nonzero"/></clipPath></defs><rect x="-7.5" width="90" fill="#ffffff" y="-7.5" height="89.999996" fill-opacity="1"/><rect x="-7.5" width="90" fill="#ffffff" y="-7.5" height="89.999996" fill-opacity="1"/><rect x="-7.5" width="90" fill="#ffffff" y="-7.5" height="89.999996" fill-opacity="1"/><path fill="#000000" d="M 37.5 70.664062 C 19.210938 70.664062 4.332031 55.785156 4.332031 37.5 C 4.332031 19.210938 19.210938 4.332031 37.5 4.332031 C 55.785156 4.332031 70.664062 19.210938 70.664062 37.5 C 70.664062 55.785156 55.785156 70.664062 37.5 70.664062 Z M 63.992188 11.007812 C 56.914062 3.929688 47.507812 0.0351562 37.5 0.0351562 C 27.492188 0.0351562 18.082031 3.929688 11.007812 11.007812 C 3.929688 18.082031 0.0351562 27.492188 0.0351562 37.5 C 0.0351562 47.507812 3.929688 56.914062 11.007812 63.992188 C 18.082031 71.066406 27.492188 74.964844 37.5 74.964844 C 47.507812 74.964844 56.914062 71.066406 63.992188 63.992188 C 71.066406 56.914062 74.964844 47.507812 74.964844 37.5 C 74.964844 27.492188 71.066406 18.082031 63.992188 11.007812 " fill-opacity="1" fill-rule="nonzero"/><g clip-path="url(#da53ce7d42)"><path fill="#000000" d="M 37.5 4.367188 C 19.230469 4.367188 4.367188 19.230469 4.367188 37.5 C 4.367188 55.769531 19.230469 70.632812 37.5 70.632812 C 55.769531 70.632812 70.632812 55.769531 70.632812 37.5 C 70.632812 19.230469 55.769531 4.367188 37.5 4.367188 Z M 37.5 70.699219 C 19.191406 70.699219 4.296875 55.804688 4.296875 37.5 C 4.296875 19.191406 19.191406 4.296875 37.5 4.296875 C 55.804688 4.296875 70.699219 19.191406 70.699219 37.5 C 70.699219 55.804688 55.804688 70.699219 37.5 70.699219 Z M 37.5 0.0664062 C 27.5 0.0664062 18.101562 3.960938 11.03125 11.03125 C 3.960938 18.101562 0.0664062 27.5 0.0664062 37.5 C 0.0664062 47.496094 3.960938 56.894531 11.03125 63.964844 C 18.101562 71.035156 27.5 74.929688 37.5 74.929688 C 47.496094 74.929688 56.894531 71.035156 63.964844 63.964844 C 71.035156 56.894531 74.929688 47.496094 74.929688 37.5 C 74.929688 27.5 71.035156 18.101562 63.964844 11.03125 C 56.894531 3.960938 47.496094 0.0664062 37.5 0.0664062 Z M 37.5 74.996094 C 27.484375 74.996094 18.066406 71.097656 10.984375 64.015625 C 3.902344 56.933594 0 47.515625 0 37.5 C 0 27.484375 3.902344 18.066406 10.984375 10.984375 C 18.066406 3.902344 27.484375 0 37.5 0 C 47.515625 0 56.933594 3.902344 64.015625 10.984375 C 71.097656 18.066406 74.996094 27.484375 74.996094 37.5 C 74.996094 47.515625 71.097656 56.933594 64.015625 64.015625 C 56.933594 71.097656 47.515625 74.996094 37.5 74.996094 " fill-opacity="1" fill-rule="nonzero"/></g><path fill="#000000" d="M 55.050781 23.59375 L 19.945312 23.59375 C 18.761719 23.59375 17.796875 24.558594 17.796875 25.746094 C 17.796875 26.929688 18.761719 27.894531 19.945312 27.894531 L 55.050781 27.894531 C 56.238281 27.894531 57.199219 26.929688 57.199219 25.746094 C 57.199219 24.558594 56.238281 23.59375 55.050781 23.59375 " fill-opacity="1" fill-rule="nonzero"/><path fill="#000000" d="M 19.945312 23.628906 C 18.78125 23.628906 17.832031 24.578125 17.832031 25.746094 C 17.832031 26.910156 18.78125 27.859375 19.945312 27.859375 L 55.050781 27.859375 C 56.214844 27.859375 57.164062 26.910156 57.164062 25.746094 C 57.164062 24.578125 56.214844 23.628906 55.050781 23.628906 Z M 55.050781 27.925781 L 19.945312 27.925781 C 18.742188 27.925781 17.765625 26.949219 17.765625 25.746094 C 17.765625 24.539062 18.742188 23.5625 19.945312 23.5625 L 55.050781 23.5625 C 56.253906 23.5625 57.234375 24.539062 57.234375 25.746094 C 57.234375 26.949219 56.253906 27.925781 55.050781 27.925781 " fill-opacity="1" fill-rule="nonzero"/><path fill="#000000" d="M 55.050781 35.351562 L 19.945312 35.351562 C 18.761719 35.351562 17.796875 36.3125 17.796875 37.5 C 17.796875 38.6875 18.761719 39.648438 19.945312 39.648438 L 55.050781 39.648438 C 56.238281 39.648438 57.199219 38.6875 57.199219 37.5 C 57.199219 36.3125 56.238281 35.351562 55.050781 35.351562 " fill-opacity="1" fill-rule="nonzero"/><path fill="#000000" d="M 19.945312 35.382812 C 18.78125 35.382812 17.832031 36.332031 17.832031 37.5 C 17.832031 38.664062 18.78125 39.613281 19.945312 39.613281 L 55.050781 39.613281 C 56.214844 39.613281 57.164062 38.664062 57.164062 37.5 C 57.164062 36.332031 56.214844 35.382812 55.050781 35.382812 Z M 55.050781 39.683594 L 19.945312 39.683594 C 18.742188 39.683594 17.765625 38.703125 17.765625 37.5 C 17.765625 36.296875 18.742188 35.316406 19.945312 35.316406 L 55.050781 35.316406 C 56.253906 35.316406 57.234375 36.296875 57.234375 37.5 C 57.234375 38.703125 56.253906 39.683594 55.050781 39.683594 " fill-opacity="1" fill-rule="nonzero"/><path fill="#000000" d="M 55.050781 47.105469 L 19.945312 47.105469 C 18.761719 47.105469 17.796875 48.066406 17.796875 49.253906 C 17.796875 50.441406 18.761719 51.402344 19.945312 51.402344 L 55.050781 51.402344 C 56.238281 51.402344 57.199219 50.441406 57.199219 49.253906 C 57.199219 48.066406 56.238281 47.105469 55.050781 47.105469 " fill-opacity="1" fill-rule="nonzero"/><path fill="#000000" d="M 19.945312 47.136719 C 18.78125 47.136719 17.832031 48.085938 17.832031 49.253906 C 17.832031 50.417969 18.78125 51.367188 19.945312 51.367188 L 55.050781 51.367188 C 56.214844 51.367188 57.164062 50.417969 57.164062 49.253906 C 57.164062 48.085938 56.214844 47.136719 55.050781 47.136719 Z M 55.050781 51.4375 L 19.945312 51.4375 C 18.742188 51.4375 17.765625 50.457031 17.765625 49.253906 C 17.765625 48.050781 18.742188 47.070312 19.945312 47.070312 L 55.050781 47.070312 C 56.253906 47.070312 57.234375 48.050781 57.234375 49.253906 C 57.234375 50.457031 56.253906 51.4375 55.050781 51.4375 " fill-opacity="1" fill-rule="nonzero"/></svg>